<svg xmlns="http://www.w3.org/2000/svg" width="100" height="100"><path style="stroke:none;fill-rule:nonzero;fill:#010100;fill-opacity:1" d="M8.34 12.5c.613.387 1.223.777 1.832 1.176a119.053 119.053 0 0 0 7.183 4.347c9.137 5.098 18.82 8.07 29.055 10.024.137.023.137.023.274.05.921.176 1.84.352 2.757.524 3.079.57 6.168 1.156 9.168 2.055.075.02.153.043.23.066 2.49.738 4.895 1.621 7.235 2.742.102.047.203.094.305.145 3.664 1.746 7.066 3.996 10 6.809l.219.207c1.683 1.597 3.105 3.355 4.25 5.378.043.079.09.153.132.23a24.086 24.086 0 0 1 2.868 8.231c.035.223.035.223.074.453.043.29.086.579.121.868.168 1.082.59 1.554 1.398 2.261.243.27.465.551.684.84.059.074.113.149.172.223.172.226.344.45.512.676.093.125.187.25.28.379 2.891 4.03 4.595 8.652 4.575 13.629 0 .148.004.296.004.453v.433c-.004.196-.004.196-.004.39-.012.34-.062.65-.137.981l-.293-.023c-.285-.02-.57-.043-.855-.067l-.914-.07c-5.95-.46-11.649 1.403-16.203 5.258a24.094 24.094 0 0 0-3.215 3.344c-.102.12-.2.242-.3.367-1.49 1.871-2.595 3.965-3.673 6.09a14.889 14.889 0 0 1-1.68-1.614c-1.398-1.523-2.94-2.894-4.53-4.222-.114-.098-.114-.098-.231-.195a56.314 56.314 0 0 0-8.832-6.012c-.11-.059-.215-.121-.328-.18-3.746-2.07-7.703-3.433-11.88-4.34-.445-.097-.886-.21-1.327-.324-.004-.176-.004-.176-.012-.352-.125-2.46-.93-4.425-2.469-6.351-.086-.106-.168-.211-.254-.32a66.498 66.498 0 0 0-1.656-1.961c-.07-.078-.137-.16-.21-.243-.395-.453-.395-.453-.79-.91-3.078-3.508-5.59-7.664-6.324-12.336-.196-1.21-.606-1.793-1.582-2.539-.469-.383-.887-.816-1.313-1.246l-.277-.277a20.93 20.93 0 0 1-1.613-1.817c-.239-.3-.489-.593-.743-.882-2.468-2.852-4.398-6.141-6.035-9.528-.066-.129-.129-.261-.195-.398-.305-.637-.574-1.246-.738-1.934.5.051.93.133 1.398.313l.266.105c.066.024.133.051.199.078l-.297-.398c-1.441-1.953-2.715-3.965-3.809-6.137l-.199-.402a20.533 20.533 0 0 1-1.035-2.5c.738.148 1.41.348 2.113.621l-.21-.41c-1.512-3.035-2.348-6.278-2.942-9.602-.02-.117-.043-.234-.062-.351A8.763 8.763 0 0 1 8.34 12.5zm0 0"/><path style="stroke:none;fill-rule:nonzero;fill:#96223e;fill-opacity:1" d="M17.648 23.18c.102.054.2.113.305.172.39.222.781.449 1.172.671.172.094.34.192.508.29 3.293 1.882 6.707 3.535 10.308 4.742.25.082.5.172.75.258 2.59.902 5.266 1.582 7.942 2.183.078.02.156.035.238.055 1.363.312 2.73.59 4.11.832.097.015.199.035.3.05 1.528.27 3.059.508 4.59.739.09.016.18.027.27.043.898.133 1.797.27 2.695.398 4.926.723 10.215 1.52 14.629 3.961.258.14.52.274.781.406 2.238 1.13 4.363 2.458 6.281 4.07l.22.18c3.05 2.524 5.702 5.57 6.75 9.473.07.254.144.508.23.758.164.5.277 1.004.39 1.516l.07.296c.11.489.196.934.165 1.434-1.754.598-3.739.324-5.465-.246l-.39-.129c-2.778-1.027-5.157-3.66-7.192-5.715-.473-.48-.965-.926-1.48-1.36l-.204-.171a34.922 34.922 0 0 0-4.02-2.934l-.222-.14c-3.84-2.399-8.793-3.762-13.309-3.707.094.117.192.234.29.351a74.412 74.412 0 0 1 2.847 3.7c.148.203.297.41.45.613.644.879 1.269 1.773 1.882 2.676l.152.226a78.594 78.594 0 0 1 2.75 4.39c.196.333.391.66.594.993.281.469.54.945.781 1.437.301.618.301.618.61 1.227 1.058 2.047 2.199 4.316 2.625 6.594.054.289.054.289.168.652.172.586.281 1.18.39 1.777.024.114.043.227.067.344.441 2.34.504 4.817-.446 7.055-.042.097-.082.195-.125.297-.671 1.453-1.945 3.058-3.476 3.675-.39-.062-.629-.199-.938-.44-.082-.067-.164-.134-.25-.2-.09-.07-.18-.14-.27-.215-3.273-2.543-7-4.887-10.905-6.309l-.293-.109c-.188-.07-.371-.137-.563-.2-.367-.136-.617-.23-.82-.577a6.67 6.67 0 0 1-.238-.766c-.79-2.398-2.286-4.183-3.899-6.074-.387-.453-.762-.914-1.14-1.375-.223-.277-.45-.55-.676-.824-1.73-2.09-3.395-4.25-4.219-6.875a9.61 9.61 0 0 0-.086-.25c-.156-.493-.164-.82-.164-1.364l5.715.371c-.492-.246-.985-.488-1.492-.742-.387-.23-.77-.46-1.149-.707-.097-.062-.199-.129-.304-.195-1.602-1.031-3.153-2.113-4.63-3.32l-.206-.168c-2.309-1.875-4.563-4.032-6.004-6.66.757.09 1.46.34 2.183.574.137.043.274.09.418.133.957.312 1.91.628 2.863.949 1.36.457 2.731.886 4.098 1.324l-.183-.105c-3.618-2.07-7.168-4.31-10.309-7.06a30.71 30.71 0 0 0-.543-.46c-.906-.79-2.11-1.883-2.5-3.055 1.117.254 2.191.594 3.273.961l1.465.492c.102.036.2.067.305.102 1.098.371 2.203.727 3.309 1.086.093.027.187.059.28.09.516.168 1.036.332 1.552.5-.625-.418-1.25-.836-1.88-1.246-2.277-1.504-4.511-3.035-6.566-4.84-.074-.063-.148-.13-.226-.195-2.02-1.743-3.953-3.63-4.989-6.137v-.246zm0 0"/><path style="stroke:none;fill-rule:nonzero;fill:#fdfdfc;fill-opacity:1" d="M8.34 12.5c.613.387 1.223.777 1.832 1.176a119.053 119.053 0 0 0 7.183 4.347c9.137 5.098 18.82 8.07 29.055 10.024.137.023.137.023.274.05.921.176 1.84.352 2.757.524 3.079.57 6.168 1.156 9.168 2.055.075.02.153.043.23.066 2.49.738 4.895 1.621 7.235 2.742.102.047.203.094.305.145 3.664 1.746 7.066 3.996 10 6.809l.219.207c1.683 1.597 3.105 3.355 4.25 5.378.043.079.09.153.132.23a24.086 24.086 0 0 1 2.868 8.231c.035.223.035.223.074.453.043.29.086.579.121.868.168 1.082.59 1.554 1.398 2.261.243.27.465.551.684.84.059.074.113.149.172.223.172.226.344.45.512.676.093.125.187.25.28.379 2.891 4.03 4.595 8.652 4.575 13.629 0 .148.004.296.004.453v.433c-.004.196-.004.196-.004.39-.012.34-.062.65-.137.981l-.293-.023c-.285-.02-.57-.043-.855-.067l-.914-.07c-5.95-.46-11.649 1.403-16.203 5.258a24.094 24.094 0 0 0-3.215 3.344c-.102.12-.2.242-.3.367-1.49 1.871-2.595 3.965-3.673 6.09a14.889 14.889 0 0 1-1.68-1.614c-1.398-1.523-2.94-2.894-4.53-4.222-.114-.098-.114-.098-.231-.195a56.314 56.314 0 0 0-8.832-6.012c-.11-.059-.215-.121-.328-.18-3.746-2.07-7.703-3.433-11.88-4.34-.445-.097-.886-.21-1.327-.324-.004-.176-.004-.176-.012-.352-.125-2.46-.93-4.425-2.469-6.351-.086-.106-.168-.211-.254-.32a66.498 66.498 0 0 0-1.656-1.961c-.07-.078-.137-.16-.21-.243-.395-.453-.395-.453-.79-.91-3.078-3.508-5.59-7.664-6.324-12.336-.196-1.21-.606-1.793-1.582-2.539-.469-.383-.887-.816-1.313-1.246l-.277-.277a20.93 20.93 0 0 1-1.613-1.817c-.239-.3-.489-.593-.743-.882-2.468-2.852-4.398-6.141-6.035-9.528-.066-.129-.129-.261-.195-.398-.305-.637-.574-1.246-.738-1.934.5.051.93.133 1.398.313l.266.105c.066.024.133.051.199.078l-.297-.398c-1.441-1.953-2.715-3.965-3.809-6.137l-.199-.402a20.533 20.533 0 0 1-1.035-2.5c.738.148 1.41.348 2.113.621l-.21-.41c-1.512-3.035-2.348-6.278-2.942-9.602-.02-.117-.043-.234-.062-.351A8.763 8.763 0 0 1 8.34 12.5zm3.848 5.09c.148.96.378 1.867.69 2.785.044.129.087.258.134.39.867 2.516 2.027 4.973 3.77 7.008a44.054 44.054 0 0 1-2.731-.746c1.695 3.567 3.965 6.828 6.828 9.559-.586-.102-1.149-.27-1.715-.441-.098-.028-.195-.06-.297-.086-.242-.075-.48-.145-.719-.215.243.797.547 1.535.922 2.281.055.105.11.21.164.324 1.641 3.196 3.903 5.969 6.364 8.567l.265.285c.563.578 1.172 1.09 1.805 1.594.465.375.574.554.676 1.14l.07.41c.04.215.04.215.078.438.957 5.195 3.559 9.176 6.965 13.097 2.238 2.583 4.156 5.149 4.668 8.614.145.031.145.031.293.066 2.762.625 5.348 1.438 7.898 2.664.121.059.239.114.36.172 4.406 2.094 8.465 4.934 12.191 8.07.227.192.45.38.676.567 1.039.867 2.031 1.777 3.023 2.695l.336.309c.098.09.196.18.293.273.254.23.254.23.63.332.05-.09.05-.09.105-.18.761-1.289 1.558-2.507 2.504-3.671l.261-.336c1.18-1.48 2.45-2.86 3.957-4.008.125-.102.25-.2.38-.305 2.597-2.078 5.652-3.465 8.87-4.258.098-.023.2-.05.301-.074 1.899-.445 3.79-.488 5.73-.469.227 0 .458 0 .688.004.555 0 1.11.004 1.664.012.031-1.648.031-1.648-.148-3.285-.016-.094-.035-.192-.051-.293-.836-4.637-3.383-9.582-6.953-12.738-.207-.235-.238-.375-.278-.684-.015-.098-.027-.191-.043-.289-.011-.105-.027-.207-.039-.313-.03-.214-.062-.43-.097-.644-.016-.11-.028-.215-.047-.324-.426-2.895-1.422-5.543-2.774-8.125-.039-.075-.078-.149-.117-.227-.867-1.64-1.972-3.117-3.234-4.472-.23-.247-.445-.5-.66-.758-2.762-3.14-6.664-5.332-10.375-7.13-.149-.07-.293-.144-.446-.214a39.018 39.018 0 0 0-5.02-1.973c-.124-.043-.124-.043-.25-.082-4.433-1.418-9.042-2.07-13.624-2.816-7.844-1.274-15.43-3.137-22.645-6.54l-.394-.187c-3.156-1.484-6.242-3.086-9.227-4.898-.129-.078-.258-.156-.39-.238-.118-.067-.23-.137-.348-.207a6.35 6.35 0 0 0-.938-.43zm0 0"/><path style="stroke:none;fill-rule:nonzero;fill:#fbb311;fill-opacity:1" d="M80.477 59.184c1.414.906 2.648 2.066 3.722 3.351l.297.356c2.125 2.648 3.711 5.597 4.297 8.957-.406-.18-.688-.407-1.012-.711a11.636 11.636 0 0 0-1.797-1.313c-.109-.07-.222-.136-.336-.207a29.222 29.222 0 0 0-7.293-3.12c-.144-.044-.289-.087-.44-.13-1.427-.398-2.84-.754-4.298-.996l-.394-.07c-.313-.051-.63-.106-.942-.156.332-.223.559-.32.93-.442 1.789-.644 3.414-1.484 4.906-2.664.098-.074.098-.074.195-.152.915-.739 1.567-1.7 2.165-2.703zm0 0"/><path style="stroke:none;fill-rule:nonzero;fill:#fcb411;fill-opacity:1" d="M81.844 69.313c2.27.78 4.62 1.824 6.453 3.406a2.1 2.1 0 0 1-1.008.07c-3.617-.457-7.394.309-10.785 1.543-.137.047-.27.094-.41.14a16.84 16.84 0 0 0-2.465 1.153c-.582.32-.582.32-.852.32.008-.07.02-.136.028-.21.254-2.294.277-4.801-.797-6.907a2.555 2.555 0 0 1-.223-.828c2.504-1.254 7.594.492 10.059 1.313zm0 0"/><path style="stroke:none;fill-rule:nonzero;fill:#fbfbfa;fill-opacity:1" d="m61.23 48.879.286.285c.183.184.37.367.554.55.375.368.73.74 1.07 1.138.887 1.023 1.868 1.906 2.934 2.746.067.05.133.105.2.16a24.097 24.097 0 0 0 2.406 1.703v.121c-2.075.023-2.075.023-3.102-.121.774 1.867 1.512 3.555 3.422 4.477 1.063.414 2.121.304 3.156-.133.824-.47 1.684-1.258 2.11-2.11h1.367c-.465 1.547-1.485 2.766-2.88 3.555-1.62.785-3.124.875-4.82.293-2.82-1.133-4.503-3.355-5.742-6.059-.699-1.695-.984-3.468-.968-5.293v-.382c.004-.313.004-.621.007-.93zm0 0"/></svg>