<svg xmlns="http://www.w3.org/2000/svg" width="100" height="100"><path style="stroke:none;fill-rule:nonzero;fill:#fbfbfa;fill-opacity:1" d="M31.91 12.734c.192.043.383.086.57.133.11.024.215.047.325.074.347.082.699.16 1.05.243l.75.175 2.012.47 1.262.292c1.945.453 3.894.91 5.84 1.367l.36.082C68.14 21.22 68.14 21.22 83.011 27.457c.11.05.218.105.328.16 3.414 1.684 6.695 3.754 7.996 7.516.086.238.086.238.172.488a7.435 7.435 0 0 1-.781 5.137c-1.028 1.562-2.41 2.758-4.204 3.351a9.318 9.318 0 0 1-1.039.13c.02-.075.04-.145.063-.22.148-.671.187-1.347-.113-1.976-.813-.656-1.871-.945-2.907-.941h-2.524c-.312.003-.628.003-.94.003h-2.481c-.844.004-1.687.004-2.527.004-1.657 0-3.309.004-4.965.008.074.051.144.102.219.153.34.234.675.468 1.007.703.118.078.23.16.348.242a57.374 57.374 0 0 1 6.23 5.015c.09.083.176.16.266.247a14.935 14.935 0 0 1 1.477 1.664c.054.074.11.144.168.214.304.403.53.782.691 1.258-3.285 4.344-8.2 6.418-13.484 7.207-1.492.207-2.961.254-4.469.207.039-.07.074-.136.113-.21.047-.094.098-.188.145-.282.047-.094.097-.183.144-.277.16-.367.164-.656.121-1.051-.015-.145-.015-.145-.027-.293-.09-.258-.09-.258-.398-.36-1.301-.468-2.52-.585-3.895-.605-.187-.008-.375-.011-.562-.015-.454-.012-.91-.02-1.364-.028-.039.098-.074.192-.113.293-.129.309-.262.606-.41.903-.05.105-.106.207-.156.312l-.168.332a9.71 9.71 0 0 1-.176.348c-.426.851-.867 1.699-1.313 2.543-.484.914-.96 1.832-1.437 2.75a326.262 326.262 0 0 1-1.715 3.281c-.473.898-.941 1.8-1.406 2.703-.57 1.098-1.14 2.192-1.715 3.281-.555 1.051-1.098 2.106-1.645 3.16-.402.778-.804 1.551-1.21 2.32-.211.391-.415.786-.622 1.177-.093.183-.191.363-.289.546-1.535 2.86-2.16 5.918-1.285 9.098.336 1.09.774 2.14 1.317 3.145.113.238.113.238.113.496-2.121-.305-4.063-1.02-5.985-1.95a16.438 16.438 0 0 0-.261-.128c-6.465-3.18-10.715-9.567-12.996-16.215-1.137-3.414-1.852-6.883-2.223-10.457l-.035-.332c-.758-7.567.113-15.559 2.945-22.625.04-.102.082-.203.125-.309.336-.808.738-1.574 1.149-2.348.062-.113.12-.226.183-.347.149-.278.297-.559.445-.84-4.058-.02-8.109.031-12.167.121l-2.192.047c-1.414.027-2.828.059-4.246.09.238-.504.563-.871.945-1.274.102-.113.102-.113.207-.222.149-.157.293-.317.442-.473.304-.32.61-.648.91-.973.152-.164.309-.328.46-.492.49-.52.97-1.043 1.454-1.566.668-.723 1.34-1.442 2.016-2.16.57-.61 1.136-1.22 1.699-1.832.574-.622 1.152-1.243 1.73-1.86.485-.52.97-1.039 1.45-1.562.668-.727 1.34-1.446 2.015-2.164.57-.606 1.137-1.22 1.703-1.832.57-.621 1.149-1.239 1.727-1.856.547-.59 1.094-1.176 1.637-1.77.363-.394.73-.788 1.101-1.18l.258-.276.5-.528c.074-.082.152-.164.234-.25l.23-.242c.235-.254.235-.254.45-.55.07-.098.145-.196.219-.294.062-.09.125-.18.191-.27.559-.359 1.375-.073 2 .06zm0 0"/><path style="stroke:none;fill-rule:nonzero;fill:#010101;fill-opacity:1" d="M30.84 18.348a187.3 187.3 0 0 1 5.91.879l.422.07c6.98 1.144 13.953 2.422 20.863 3.941.25.055.5.106.75.16 7.5 1.625 15.176 3.418 22.274 6.399.136.058.136.058.28.117 3.22 1.36 6.263 2.992 7.657 6.387.328 1.246.23 2.515-.39 3.644-.2.297-.2.297-.391.52h-.262c-.031-.156-.062-.317-.098-.48-.168-.641-.382-1.028-.968-1.387-1.078-.567-2.059-.774-3.262-.766h-.355c-.391 0-.782 0-1.172.004-.282 0-.563 0-.844-.004-.758 0-1.52.004-2.281.004-.797.004-1.59.004-2.387.004-1.508 0-3.012.004-4.52.004-1.714.004-3.43.004-5.144.008-3.527 0-7.055.007-10.582.011.074.04.148.075.226.114.332.171.668.34 1 .511l.356.18c.168.086.168.086.336.176l.312.156c.242.164.242.164.371.555-.101.285-.101.285-.27.62l-.19.388c-.075.14-.145.285-.22.43-.074.148-.148.3-.226.452-.207.418-.418.832-.625 1.25-.226.45-.453.899-.676 1.348-.39.777-.78 1.559-1.172 2.336-.566 1.129-1.132 2.258-1.695 3.387-.918 1.832-1.84 3.664-2.758 5.496-.89 1.777-1.78 3.554-2.672 5.328-.054.11-.109.219-.167.332-.598 1.195-1.196 2.387-1.793 3.582-.16.316-.317.633-.477.95-.105.21-.21.421-.316.628-.664 1.328-1.329 2.656-1.996 3.984-.336.672-.672 1.344-1.012 2.016l-.668 1.336c-1.258 2.504-1.258 2.504-2.45 5.035-.054.113-.105.227-.16.34-1.168 2.566-1.03 5.203-.363 7.86.047.214.09.433.133.648-3.523-1.801-6.738-6.125-8.05-9.813-.141-.246-.141-.246-.513-.285-.144-.004-.285-.012-.433-.016l-.762-.035c.59-.937 1.195-1.859 1.82-2.773.172-.246.344-.496.512-.746.09-.13.176-.254.266-.387.433-.633.863-1.266 1.297-1.898l.25-.368c.484-.71.965-1.421 1.437-2.14.875-1.305 1.77-2.598 2.664-3.89 1.16-1.688 2.32-3.38 3.453-5.087.774-1.156 1.563-2.297 2.352-3.441.703-1.02 1.398-2.043 2.082-3.078.09-.133.184-.27.281-.407.25-.359.25-.359.367-.761a39.437 39.437 0 0 0-2.941 3.261c-.352.434-.71.856-1.074 1.274-.508.59-1.012 1.18-1.512 1.773-.504.594-1.008 1.184-1.512 1.774a58.266 58.266 0 0 0-1.343 1.601 71.8 71.8 0 0 1-1.66 1.953c-.41.473-.817.95-1.212 1.438a69.658 69.658 0 0 1-1.632 1.926c-.461.531-.922 1.066-1.375 1.601l-.172.207c-.305.36-.61.723-.91 1.082-.067.075-.13.153-.196.23-.12.141-.238.286-.359.43-.363.43-.742.833-1.145 1.223-.808-3.07-1.468-6.273-1.437-9.465 0-.156 0-.308.004-.468 0-.114 0-.227.004-.344-.157-.016-.313-.031-.473-.05a5.547 5.547 0 0 1-1.348-.34c1.09-1.114 2.329-2.048 3.567-2.989a76.94 76.94 0 0 0 2.18-1.73A137.41 137.41 0 0 1 34 54.69c.379-.296.758-.593 1.133-.89.453-.356.91-.711 1.363-1.07.785-.614 1.566-1.235 2.344-1.856a255.69 255.69 0 0 1 2.574-2.035c.379-.297.758-.598 1.137-.895.539-.422 1.078-.847 1.62-1.27.227-.179.454-.359.684-.538.274-.219.551-.434.829-.649.12-.093.238-.187.363-.281.101-.082.207-.164.316-.246l.219-.203V44.5c-1.68.98-3.348 1.984-5.004 3.008a269.39 269.39 0 0 1-2.883 1.75c-1.05.629-2.097 1.265-3.148 1.906-1.027.625-2.055 1.25-3.086 1.875l-2.254 1.371c-.137.086-.277.172-.418.258-.266.16-.527.324-.789.484-.117.07-.234.141-.352.215-.101.063-.203.125-.308.188-.23.133-.23.133-.363.133-.047-1.16.101-2.258.293-3.399l.046-.27c.32-1.94.743-3.828 1.352-5.699-.117-.035-.234-.07-.352-.11a4.38 4.38 0 0 1-.996-.491l-.273-.176c-.067-.043-.129-.09-.2-.133.13-.262.13-.262.489-.406.16-.055.32-.106.484-.16.09-.032.18-.059.274-.09.3-.102.601-.2.902-.3l.645-.212c.464-.156.925-.308 1.39-.46.735-.243 1.465-.485 2.2-.731 1.421-.473 2.847-.942 4.269-1.414 1.813-.598 3.625-1.2 5.438-1.801.726-.242 1.457-.48 2.187-.723.453-.148.906-.3 1.36-.449.206-.07.417-.14.628-.21.29-.095.575-.188.864-.286.16-.05.32-.105.484-.16.383-.121.383-.121.633-.406-.664.09-1.317.207-1.973.343-.152.032-.152.032-.312.063a451.104 451.104 0 0 1-1.743.36c-.64.128-1.277.26-1.918.39-.628.133-1.257.258-1.882.387-.25.054-.5.105-.75.156l-1.496.304c-1.172.243-2.344.48-3.512.727-.535.113-1.07.223-1.602.336-.254.05-.508.105-.765.16-.348.074-.7.145-1.051.219l-.317.066c-.718.149-.718.149-1.152.004a34.88 34.88 0 0 1 1.91-3.726c.07-.118.145-.239.215-.364.313-.515.625-1.015.992-1.492.301-.36.301-.36.235-.672-.153-.39-.442-.59-.758-.863-.215-.184-.43-.371-.64-.559v-.132H55.82l.13-.52a8.765 8.765 0 0 1-.325.008c-1.73.027-3.45-.11-5.172-.238-.281-.02-.558-.043-.84-.063-2.785-.203-5.57-.422-8.355-.64a18.71 18.71 0 0 0-.485-.04c-1.597-.128-3.195-.253-4.796-.382-4.399-.352-8.801-.68-13.204-.985.122-.168.247-.332.368-.496.066-.094.136-.183.207-.277a9.58 9.58 0 0 1 .98-1.051c.516-.496.992-1.008 1.461-1.55.402-.458.82-.895 1.238-1.337.692-.73 1.38-1.465 2.063-2.207.351-.383.707-.765 1.062-1.144.082-.086.164-.176.25-.266.157-.168.317-.336.477-.504.398-.426.777-.855 1.133-1.316-.176-.621-.551-1.004-.98-1.461-.192-.23-.192-.23-.192-.492zm0 0"/><path style="stroke:none;fill-rule:nonzero;fill:#a5acaf;fill-opacity:1" d="M31.91 12.734c.192.043.383.086.57.133.11.024.215.047.325.074.347.082.699.16 1.05.243l.75.175 2.012.47 1.262.292c1.945.453 3.894.91 5.84 1.367l.36.082C68.14 21.22 68.14 21.22 83.011 27.457c.11.05.218.105.328.16 3.414 1.684 6.695 3.754 7.996 7.516.086.238.086.238.172.488a7.435 7.435 0 0 1-.781 5.137c-1.028 1.562-2.41 2.758-4.204 3.351a9.318 9.318 0 0 1-1.039.13c.02-.075.04-.145.063-.22.148-.671.187-1.347-.113-1.976-.813-.656-1.871-.945-2.907-.941h-2.524c-.312.003-.628.003-.94.003h-2.481c-.844.004-1.687.004-2.527.004-1.657 0-3.309.004-4.965.008.074.051.144.102.219.153.34.234.675.468 1.007.703.118.078.23.16.348.242a57.374 57.374 0 0 1 6.23 5.015c.09.083.176.16.266.247a14.935 14.935 0 0 1 1.477 1.664c.054.074.11.144.168.214.304.403.53.782.691 1.258-3.285 4.344-8.2 6.418-13.484 7.207-1.492.207-2.961.254-4.469.207.039-.07.074-.136.113-.21.047-.094.098-.188.145-.282.047-.094.097-.183.144-.277.16-.367.164-.656.121-1.051-.015-.145-.015-.145-.027-.293-.09-.258-.09-.258-.398-.36-1.301-.468-2.52-.585-3.895-.605-.187-.008-.375-.011-.562-.015-.454-.012-.91-.02-1.364-.028-.039.098-.074.192-.113.293-.129.309-.262.606-.41.903-.05.105-.106.207-.156.312l-.168.332a9.71 9.71 0 0 1-.176.348c-.426.851-.867 1.699-1.313 2.543-.484.914-.96 1.832-1.437 2.75a326.262 326.262 0 0 1-1.715 3.281c-.473.898-.941 1.8-1.406 2.703-.57 1.098-1.14 2.192-1.715 3.281-.555 1.051-1.098 2.106-1.645 3.16-.402.778-.804 1.551-1.21 2.32-.211.391-.415.786-.622 1.177-.093.183-.191.363-.289.546-1.535 2.86-2.16 5.918-1.285 9.098.336 1.09.774 2.14 1.317 3.145.113.238.113.238.113.496-2.121-.305-4.063-1.02-5.985-1.95a16.438 16.438 0 0 0-.261-.128c-6.465-3.18-10.715-9.567-12.996-16.215-1.137-3.414-1.852-6.883-2.223-10.457l-.035-.332c-.758-7.567.113-15.559 2.945-22.625.04-.102.082-.203.125-.309.336-.808.738-1.574 1.149-2.348.062-.113.12-.226.183-.347.149-.278.297-.559.445-.84-4.058-.02-8.109.031-12.167.121l-2.192.047c-1.414.027-2.828.059-4.246.09.238-.504.563-.871.945-1.274.102-.113.102-.113.207-.222.149-.157.293-.317.442-.473.304-.32.61-.648.91-.973.152-.164.309-.328.46-.492.49-.52.97-1.043 1.454-1.566.668-.723 1.34-1.442 2.016-2.16.57-.61 1.136-1.22 1.699-1.832.574-.622 1.152-1.243 1.73-1.86.485-.52.97-1.039 1.45-1.562.668-.727 1.34-1.446 2.015-2.164.57-.606 1.137-1.22 1.703-1.832.57-.621 1.149-1.239 1.727-1.856.547-.59 1.094-1.176 1.637-1.77.363-.394.73-.788 1.101-1.18l.258-.276.5-.528c.074-.082.152-.164.234-.25l.23-.242c.235-.254.235-.254.45-.55.07-.098.145-.196.219-.294.062-.09.125-.18.191-.27.559-.359 1.375-.073 2 .06zm-.62 3.414c-.169.2-.169.2-.317.426-.13.16-.254.32-.383.477-.063.086-.13.172-.195.258-.36.453-.762.867-1.165 1.285-.168.176-.332.351-.5.531-.082.086-.164.172-.246.266-.39.414-.777.828-1.164 1.242l-.226.242-.45.484-1.136 1.22c-.153.16-.305.323-.457.487l-4.781 5.122c-.153.164-.305.324-.454.488-.46.488-.918.98-1.375 1.469-.226.242-.453.484-.675.726-.317.34-.63.676-.946 1.012-.156.164-.312.332-.468.5-.075.078-.149.156-.223.238-.352.3-.352.3-.512.688h16.656l-1.562 2.343a57.25 57.25 0 0 0-1.3 2.34c-.056.106-.106.207-.165.313-2.465 4.8-3.648 10.097-4.262 15.43l-.035.328c-.14 1.394-.125 2.8-.125 4.203v.418c0 3.39.305 6.683.942 10.015.02.098.039.203.058.305.86 4.539 2.715 9.074 5.406 12.832l.27.383c.746 1.027 1.582 1.96 2.465 2.87a14.806 14.806 0 0 0 1.918 1.723c.094.075.187.145.285.22 2.164 1.683 2.164 1.683 4.691 2.48a48.497 48.497 0 0 0-.664-2.672l-.117-.45a6.76 6.76 0 0 1-.078-.3c-.535-3.676.938-6.727 2.547-9.914.207-.41.414-.82.617-1.227l1.035-2.062c.485-.961.965-1.922 1.446-2.88.378-.757.761-1.51 1.14-2.269.059-.117.059-.117.117-.238.875-1.738 1.75-3.469 2.664-5.188.407-.769.793-1.55 1.18-2.332a163.578 163.578 0 0 1 2.52-4.863c.047-.09.093-.18.144-.273.09-.168.184-.34.274-.504.175-.332.328-.64.445-.996.898-.008 1.797-.016 2.691-.02.305-.004.614-.004.918-.008.438-.004.88-.007 1.32-.007.133-.004.27-.004.407-.008 1.46 0 2.867.285 4.031 1.215.414.574.402 1 .39 1.691 1.497.031 2.942-.004 4.423-.258.14-.027.14-.027.285-.05 3.73-.676 6.62-2.583 9.215-5.286a15.734 15.734 0 0 0-1.735-2.039c-.133-.136-.133-.136-.27-.273-.952-.93-1.992-1.727-3.07-2.5-.175-.13-.175-.13-.351-.258-1.434-1.027-2.942-1.961-4.45-2.879-.277-.168-.554-.34-.831-.516a25.008 25.008 0 0 0-2.387-1.336c-.492-.242-.98-.5-1.465-.761-.09-.047-.18-.094-.27-.145l-.656-.351c2.883-.008 5.762-.016 8.64-.02 1.34-.004 2.677-.004 4.016-.008 1.165-.004 2.329-.007 3.497-.007.617 0 1.234-.004 1.851-.008h1.746c.211 0 .422 0 .637-.004 1.414-.008 2.656.02 3.812.957.454.55.477 1.137.52 1.82 1.414-.812 2.547-1.617 3.105-3.21.457-1.755.067-3.305-.777-4.864-3.371-5.477-12.004-7.723-17.82-9.5-.348-.106-.692-.219-1.031-.328-1.422-.465-2.856-.856-4.301-1.238-.766-.207-1.531-.418-2.297-.63-4.852-1.355-9.758-2.421-14.688-3.445-.636-.133-1.273-.27-1.91-.402-3.035-.648-6.082-1.215-9.136-1.754-.293-.055-.59-.105-.883-.156-.473-.086-.942-.168-1.41-.25-.258-.043-.512-.09-.77-.133-.473-.082-.945-.16-1.422-.238-.086-.016-.176-.028-.266-.043a56.722 56.722 0 0 0-.8-.125c-.16-.024-.317-.047-.48-.074-.41-.02-.56-.004-.868.253zm0 0"/><path style="stroke:none;fill-rule:nonzero;fill:#010101;fill-opacity:1" d="M60.113 39.945c.871.332 1.688.778 2.512 1.203l.273.141a84.41 84.41 0 0 1 4.649 2.594c.379.23.766.457 1.148.683 6.907 4.114 6.907 4.114 7.551 6.047-1.172 1.617-2.976 2.653-4.824 3.317-.145.054-.145.054-.29.105-.69.238-.69.238-1.132.09.059-.043.121-.09.18-.137.582-.465.941-.875 1.254-1.554.043-.364.043-.364 0-.649-.391-.195-.797-.16-1.227-.172-.094-.004-.191-.004-.289-.008l-.91-.023c-.203-.008-.41-.012-.617-.02-.504-.011-1.008-.027-1.512-.039-.063.153-.063.153-.121.313-.14.34-.14.34-.285.582-.25.61-.141 1.168.082 1.766.062.152.129.304.191.464-.973-.05-1.75-.656-2.387-1.359-.421-.527-.734-1.074-.734-1.766h-8.324c.203-.609.426-1.152.715-1.718l.14-.278.293-.586.469-.925c.328-.66.66-1.317.992-1.973l1.149-2.285c.156-.305.308-.61.46-.914l.282-.563.133-.254c.418-.84.476-1.18.18-2.082zm0 0"/><path style="stroke:none;fill-rule:nonzero;fill:#a4182f;fill-opacity:1" d="M34.395 23.535c.171.024.171.024.347.043l.387.047.394.059c.118.015.239.03.36.05.367.055.73.114 1.097.176.133.02.27.043.407.067l1.277.21c.281.047.563.094.844.137 2.926.48 5.84 1.016 8.75 1.563.097.02.195.035.297.054 2.906.547 5.812 1.11 8.71 1.704.231.043.231.043.465.093 2.825.575 5.641 1.176 8.442 1.864.906.222 1.812.441 2.723.644 2.257.504 4.476 1.121 6.699 1.762l-.13.523a40.305 40.305 0 0 1-3.218-.343l-.957-.141a44.682 44.682 0 0 0-.262-.035c-1.359-.2-2.718-.395-4.074-.59a1079.212 1079.212 0 0 0-6.496-.91c-.84-.114-1.676-.23-2.512-.348-1.511-.21-3.023-.418-4.53-.625-1.59-.219-3.18-.441-4.767-.66a198993.199 198993.199 0 0 1-2.215-.309c-2.421-.336-4.843-.664-7.265-.984-2.563-.34-5.121-.688-7.676-1.043.192-.398.39-.688.7-1.012.124-.136.124-.136.257-.273l.27-.281c.09-.094.176-.188.27-.286l.714-.75c.055-.066.11-.136.168-.21.223-.18.223-.18.524-.196zm0 0"/><path style="stroke:none;fill-rule:nonzero;fill:#a3182f;fill-opacity:1" d="m45.02 59.719.39.261c-.18.586-.418 1.122-.7 1.668-.472.934-.929 1.875-1.382 2.82-.465.981-.937 1.954-1.43 2.923-.378.757-.742 1.52-1.105 2.28-.402.845-.805 1.688-1.227 2.524-.449.887-.882 1.785-1.308 2.684-.453.945-.906 1.89-1.375 2.828-.043.082-.082.164-.125.246-.219.438-.453.863-.715 1.281-.57-.523-.961-1.09-1.355-1.754-.063-.097-.126-.195-.188-.296-.055-.094-.113-.188-.172-.286a9.068 9.068 0 0 0-.156-.257c-.117-.395-.008-.555.18-.918.203-.332.418-.653.632-.973.067-.094.13-.191.196-.29l.422-.628c.386-.57.77-1.144 1.152-1.715.082-.12.16-.242.246-.367.8-1.195 1.59-2.395 2.379-3.598a673.923 673.923 0 0 1 5.64-8.433zm0 0"/><path style="stroke:none;fill-rule:nonzero;fill:#a2182e;fill-opacity:1" d="M42.941 51.133c.051.265.051.265 0 .652-.25.352-.55.649-.855.95-.168.175-.34.35-.508.527l-.242.25c-.246.254-.477.511-.707.777-.348.406-.711.805-1.07 1.203-.375.41-.746.82-1.11 1.235-.469.546-.957 1.074-1.441 1.609-.258.281-.512.566-.762.855-.383.446-.781.88-1.176 1.309a65.708 65.708 0 0 0-1.402 1.563c-.566.648-1.145 1.285-1.723 1.917l-.316.352c-.094.102-.192.207-.29.316-.257.286-.257.286-.5.668h-.257c-.047-.39-.09-.78-.133-1.171l-.035-.332a40.61 40.61 0 0 1-.094-.97c-.011-.097-.023-.19-.03-.288-.04-.508.007-.72.32-1.125.132-.117.265-.227.402-.336l.215-.184c.214-.183.433-.363.656-.539.113-.098.23-.191.351-.293.23-.187.461-.375.692-.558.46-.38.91-.774 1.363-1.165.57-.5 1.14-.988 1.73-1.464.454-.368.895-.746 1.325-1.137a36.65 36.65 0 0 1 1.687-1.43c.465-.383.918-.777 1.371-1.172 2.317-2.02 2.317-2.02 2.54-2.02zM44.629 42.547c-.027.242-.027.242-.129.52-.234.156-.234.156-.543.292-.57.266-1.117.555-1.66.871-1.285.747-2.598 1.442-3.91 2.141-1.18.633-2.352 1.266-3.508 1.941-.594.329-1.2.626-1.809.922-.43.22-.836.465-1.238.73a4.079 4.079 0 0 1-.863.388c.015-.297.043-.59.082-.883.058-.426.058-.426.066-.895.067-.578.125-1.02.504-1.472.817-.532 1.79-.778 2.715-1.051.574-.172 1.137-.375 1.7-.578a217.696 217.696 0 0 0 2.879-1.016c.132-.047.269-.094.405-.145.75-.269 1.5-.546 2.246-.828.16-.058.32-.12.485-.183.312-.114.62-.235.93-.352.14-.05.28-.105.425-.16.125-.047.246-.094.375-.14.328-.102.328-.102.848-.102zm0 0"/><path style="stroke:none;fill-rule:nonzero;fill:#a1182e;fill-opacity:1" d="M48.926 35.39c-.281.422-.352.512-.864.665-.203.039-.406.074-.609.11-.113.019-.223.042-.34.062-.394.07-.785.14-1.18.207-.156.023-.312.05-.476.078l-2.031.34c-.977.16-1.946.332-2.914.535-.688.136-1.383.258-2.078.379-.395.066-.79.14-1.188.214-.148.028-.148.028-.305.055-.191.035-.386.074-.578.11-.43.082-.68.12-1.097-.02.254-.39.511-.777.77-1.164l.222-.336c.07-.105.14-.21.215-.316.062-.098.129-.196.195-.297.156-.23.156-.23.289-.36.293-.02.59-.03.887-.039l.281-.008.934-.023c.214-.004.433-.012.648-.016l1.367-.035c.578-.015 1.16-.031 1.739-.043l1.343-.035a145.347 145.347 0 0 1 4.77-.063zm0 0"/><path style="stroke:none;fill-rule:nonzero;fill:#9f172d;fill-opacity:1" d="M59.203 48.273c2.363.32 4.73.649 7.09 1.008.094.012.184.028.277.04.262.038.524.081.785.12.145.024.293.043.446.067.304.05.601.113.898.195l-.129.52H58.293c.117-.582.223-.856.527-1.34.07-.117.14-.23.215-.348.082-.133.082-.133.168-.262zm0 0"/><path style="stroke:none;fill-rule:nonzero;fill:#f8f8f7;fill-opacity:1" d="M85.742 33.96c1.024.411 1.715 1.134 2.219 2.114.336.805.316 1.582.254 2.442l-.285-.293c-1.785-1.746-4.125-1.485-6.465-1.496l-.988-.012c-.805-.012-1.606-.016-2.41-.024l.128-.39c.23-.02.23-.02.465-.043l1.723-.164.742-.07c1.879-.176 1.879-.176 3.75-.454.348-.047.348-.047 1.129-.047l-.262-1.562zm0 0"/><path style="stroke:none;fill-rule:nonzero;fill:#ededec;fill-opacity:1" d="M78.719 30.84c.742.18 1.36.469 2.023.844.153.086.153.086.309.171.664.383 1.308.786 1.933 1.227.075.05.145.102.223.152.496.364.856.766 1.234 1.246-2.082.18-2.082.18-2.671-.226a7.307 7.307 0 0 1-.582-.945 8.638 8.638 0 0 0-.38-.47l-.19-.222c-.313-.328-.657-.62-1-.914-.317-.273-.61-.566-.9-.863zm0 0"/></svg>