<svg xmlns="http://www.w3.org/2000/svg" width="100" height="100"><path style="stroke:none;fill-rule:evenodd;fill:#fffffe;fill-opacity:1" d="M83.117 49.238c-.437-.289-.437-.578 0-.867 3.766-2.754 6.23-6.379 6.23-11.887 0-6.52-4.636-15.652-22.898-15.652H19.492L8.914 39.382h7.824c.871 0 1.594.727 1.594 1.595v18.55c0 .871-.723 1.598-1.594 1.598H8.332l10.727 18.402h49.71c16.086 0 22.899-8.402 22.899-17.39 0-5.942-4.203-10.723-8.55-12.899zm0 0"/><path style="stroke:none;fill-rule:evenodd;fill:#d94f00;fill-opacity:1" d="M55.29 46.05h-7.68v-7.39c0-.726.578-1.45 1.449-1.45h6.23c3.77 0 5.074 1.884 5.074 4.349 0 2.609-1.304 4.492-5.074 4.492zm0 17.102h-6.231c-.727 0-1.45-.578-1.45-1.449v-7.39h7.68c3.77 0 5.074 1.738 5.074 4.347 0 2.61-1.304 4.492-5.074 4.492zm22.03-13.48c-.582-.145-.437-.867 0-1.012 5.07-1.883 8.114-5.363 8.114-11.45 0-8.116-7.102-13.624-18.696-13.624H22.391L14.71 37.21h5.363c1.012 0 1.883.867 1.883 1.883v22.031c0 1.012-.871 1.883-1.883 1.883h-5.363l7.824 13.62h46.086c13.192 0 18.55-8.694 18.55-15.214.15-5.508-4.054-10.289-9.85-11.742zm0 0"/><path style="stroke:none;fill-rule:evenodd;fill:#0a0b09;fill-opacity:1" d="M37.465 73.008c-8.262-15.363-10.293-33.043-7.246-49.278H22.39l-7.68 13.625h5.363c1.012 0 1.883.872 1.883 1.883v16.957c3.914 6.38 9.711 12.61 15.508 16.813zM76.16 25.18c-9.422 13.914-14.492 31.597-12.176 47.683 2.754-13.625 10.145-26.086 21.45-35.218v-.434c0-5.508-3.332-9.856-9.274-12.031zm-15.797-1.594c-1.449 3.914-3.043 8.55-4.347 13.77H49.059c-.727 0-1.45.578-1.45 1.449v7.39h6.664c-.433 2.61-.722 5.364-1.011 8.262h-5.653v7.39c0 .727.578 1.45 1.45 1.45h3.914c0 4.492.433 8.984 1.3 13.625h-5.796C43.984 65.906 37.754 47.355 43.84 23.73h16.523zm0 0"/></svg>