<svg xmlns="http://www.w3.org/2000/svg" width="100" height="100"><path style="stroke:none;fill-rule:nonzero;fill:#fff;fill-opacity:1" d="M91.66 72.984v-.035l-.004-.039c-.375-5.066-1.508-10.195-3.465-15.68l-.046-.109-.227-.543.027.059c-.82-2.121-2.523-3.035-5.027-2.723l-1.129.121-.46.043c-1.934.176-4.716.426-7.165.2l-3.043-7.208c.629-.41 1.16-.89 1.496-1.5.27-.488.442-1.008.543-1.515.938-.13 1.82-.547 2.453-1.23.926-1.013 1.45-2.829.14-4.903l.067.11-4.078-7.348-2.41 1.023c-9.668-15.582-28.059-17.969-41.633-12.113-12.316 5.316-24.242 19.34-17.332 41.375a45.906 45.906 0 0 0 2.778 6.812 6.33 6.33 0 0 0 .132 2.059l.008.039.008.035c.355 1.332.676 2.215 1.5 4.05a4.709 4.709 0 0 0 1.27 3.368c1.355 1.457 3.507 2.031 5.91 1.566l-.118.02c3.176-.445 5.235-1.379 6.313-1.996 4.754 3.324 10.969 4.812 16.484 3.898 3.594-.597 6.5-2.152 8.504-4.515 1.532.101 2.91-.063 3.184-.098 1.695-.121 3.238-.48 4.613-1.062 2.04 2.378 4.797 4.085 8.106 4.96 3.859 1.016 8.242.95 12.406-.168.808.075 1.594-.148 2.164-.41 4.379-1 5.355-1.418 6.004-1.972.008-.008.02-.016.023-.024 1.559-1.066 2.067-3.066 2.004-4.547zm-2.308 4.758-.036.024c.036-.024.067-.051.102-.075zm0 0"/><path style="stroke:none;fill-rule:nonzero;fill:#fff;fill-opacity:1" d="M65.227 66.684a133.59 133.59 0 0 0 8.464-1.192l-8.05-1.36a12.558 12.558 0 0 1-.414 2.552zM78.895 63.32c-.305-.918-.891-2.668-1.215-3.476l-.008-.024s-.008-.101-.2-.246c-.113-.082-.46-.023-.46-.023-.774.168-1.692.336-2.7.504l1.38 3.304c.874.012 1.988.012 3.203-.039zM73.027 63.156c-.343-.82-.738-1.742-1.152-2.73-2.031.289-4.234.558-6.328.781.027.219.055.434.07.648zM64.293 53.54c.008 1.464.191 2.835.43 3.831.156.488.293.98.41 1.473 1.945-.203 3.949-.45 5.777-.703h-.004c-2.441-.809-4.84-2.414-6.613-4.602zM64.598 50.344c1.644 2.37 3.66 3.926 4.5 4.445.129.11.324.223.53.332l-3.5-8.277c-.023.039-.05.066-.077.11-.742.925-1.188 2.124-1.453 3.39zM52.504 71.582c-.047.117-.086.238-.137.352.047-.118.098-.235.137-.352zM42.777 77.941c3.594-.265 6.864-1.644 8.785-4.496h-.007c.093-.129.172-.261.254-.394.043-.074.093-.145.14-.223.055-.098.098-.195.145-.289a9.58 9.58 0 0 0 .172-.348c.035-.078.062-.156.093-.234-1.703 3.863-5.437 5.66-9.582 5.984zM81.418 63.148a25.733 25.733 0 0 0 3.34-.523l-.32-1.32a29.051 29.051 0 0 0-.977-2.957c-.262.09-1.195.375-3.469.785a40.49 40.49 0 0 1 1.426 4.015zM83.746 74.438c-.152-.036-.305-.09-.457-.13v.204c.156-.024.32-.051.457-.075zM83.148 71.777c.985.422 2.024.73 3.082.895.055.004.313.023.633.086.028-.117.047-.25.035-.426-.195-1.734-.722-4.562-1.07-6.434l-.05-.285c-.669.168-2.52.633-3.512.817.398 1.773.71 3.586.882 5.343zM80.555 75.031c.043-.023.32-.203.324-.699 0-.012-.02-.402-.063-1.004-2.175-1.18-4.191-3.105-5.664-5.55-3.515.609-7.597 1.148-11.02 1.515-.198.328-.417.637-.66.934 3.337 5.62 10.727 6.523 17.083 4.804zM80.527 70.281c-.129-1.074-.304-2.16-.535-2.972l-.008-.02v-.027c-.004-.063-.046-.274-.16-.348-.023-.016-.082-.062-.238-.02-.602.145-1.262.286-1.965.426a12.294 12.294 0 0 0 2.906 2.961zM22.324 73.117c-.027.012-.05.016-.074.024.605-.086 1.348-.184 1.84-.196a4.959 4.959 0 0 1 2.691.739c.133-.079.27-.164.367-.227l.41.34c-.097.066-.218.133-.331.2.113.089.226.179.335.284 0 0-.023.02-.03.028.077-.055.323-.227.663-.5-1.32-.942-3.195-1.633-5.87-.692zm0 0"/><path style="stroke:none;fill-rule:nonzero;fill:#ff3c00;fill-opacity:1" d="M46.648 59.121c.645.426 1.372.93 1.399 1.875.031.969-.813 2.106-1.09 2.473-.352.472-1.469 1.793-2.922.87 0 0-2.101-1.304-3.586-2.19l-1.058 1.566c1.953.336 7.27 1.25 11.765 2.02-.258-1.876-.87-3.59-1.246-5.083.656 1.403 1.324 3.203 1.707 5.16.336.06.664.118.988.172-.105-.507-.214-.972-.3-1.367-.176-.808-.899-2.539-1.535-4.644a11.962 11.962 0 0 1-2.797-2.266 156.721 156.721 0 0 1-2.926-2.848c-.692 1.118-1.137 1.836-1.414 2.286zM54.855 45.21c1.73-.933 3.196-1.44 5.54-1.792-.012.004.683-.094.683-.094.469-.07 1.36-.254 1.613-.719.145-.261.188-.62.172-1.039-2.925.614-5.976 1.344-8.62 2.418-.903.328-1.622.79-2.325 1.243.215.457.473 1 .758 1.617.59-.563 1.168-.985 1.64-1.285.094-.079.54-.348.54-.348zM46.406 52.637c.969 1.05 2.383 2.593 3.512 3.71-.246-1.577-.3-3.199.027-4.702a9.133 9.133 0 0 1 .953-2.516l-.964-2.102c-.227.34-.543.825-.852 1.309 0-.004-1.305 2.078-2.68 4.297zm0 0"/><path style="stroke:none;fill-rule:nonzero;fill:#ff3c00;fill-opacity:1" d="M50.273 43.305c1.086-.887 2.622-1.442 2.622-1.442 2.046-.86 5.695-1.84 9.421-2.586-.257-.746-1.09-3.136-1.09-3.136-.042-.106-.613-1.278-.163-1.985.195-.304.57-.472 1.035-.468 0 0-.024.011 1.285.058l.058-.023c.012-.004.028-.016.028-.016l1.426-.684c.34-.101.746-.203.746-.203.925-.05 1.433.516 1.703 1l.156.012c-.61-1.2-.957-1.578-1.363-2.258C48.336 6.214 3.445 21.891 12.3 57.328c1.98 7.2 4.293 11.016 6.804 14.594 0 0 .06 1.734 2.887.832 2.7-.867 4.598-.813 7.207 1.226 3.465 2.704 8.805 4.313 13.578 3.961 4.145-.324 7.875-2.125 9.582-5.988.004-.008.004-.016.008-.02.051-.113.09-.234.133-.351.352-1.039.453-2.094.418-3.086-.34-.055-.691-.117-1.059-.18-.261 4.465-4.695 8.75-12.613 8.258-3.316-.125-6.851-1.734-8.96-2.883-.97-.652-3.708-2.183-5.02-2.472 1.144.062 3.996 1.554 5.191 2.242 2.453 1.266 5.875 2.477 8.79 2.598 5.292.496 11.296-2.207 11.964-7.852-5.297-.894-12.48-2.113-13.418-2.27-.207.145-.461.223-.75.204-.535-.036-1.055-.368-1.262-.805-.156-.324-.12-.672.098-.977-.004.008 2.52-3.757 2.52-3.757l.109-.211c-.11-.567.152-1.067.273-1.188.203-.207 1.352-2.09 1.617-2.617.028-.059.332-.52.93-.57.258-.414.902-1.446 2.008-3.23-.086-.5.144-.99.5-1.263.11-.086.223-.132.332-.183 1.348-2.184 2.86-4.574 3.281-5.2.485-.663.86-1.1 1.29-1.597.175-.203.59-.527.69-.605.204-.258.485-.461.786-.547.004-.024.015-.055.058-.086zm-5.968 24.02a1.576 1.576 0 0 1 .613 3.027c-.188.199-.45.324-.742.324-.406 0-.75-.246-.914-.598-.328-.289-.54-.71-.54-1.183a1.58 1.58 0 0 1 1.583-1.57zm-12.422 4.984c-.23.195-.551.261-.88.23-.355.203-.882.09-1.269-.316-.367-.387-.457-.891-.277-1.235-.074-.558.078-1.113.477-1.39.597-.422 1.5-.164 2.023.578.52.738.492 1.66-.07 2.133zm7.777-4.243c-2.648 2.801-7.894 2.782-10.875-1.035 5.043 4.676 9.75 1.586 10.875 1.035zm-4.773-3.289c-.325.102-.668.16-1.024.157-.976-.008-1.953-.446-2.675-1.2-1.418-1.488-1.508-3.773-.204-5.105a3.077 3.077 0 0 1 2.246-.914c.98.004 1.954.441 2.676 1.2a4.043 4.043 0 0 1 1.13 2.694zm0 0"/><path style="stroke:none;fill-rule:nonzero;fill:#311d00;fill-opacity:1" d="M52.266 72.191c-.055.118-.114.23-.172.344.058-.113.12-.23.172-.344zm0 0"/><path style="stroke:none;fill-rule:nonzero;fill:#311d00;fill-opacity:1" d="M42.777 77.941c-4.773.352-10.113-1.257-13.578-3.96-2.61-2.04-4.508-2.094-7.207-1.227-2.828.902-2.887-.832-2.887-.832-2.511-3.578-4.824-7.395-6.804-14.594C3.445 21.891 48.336 6.215 66.137 31.574c.406.68.754 1.059 1.363 2.258l.633.05C51.465 4.185.203 20.657 12.543 59.997a43.797 43.797 0 0 0 2.96 7.121l.067-.262s.106.305.313.782c.004-.012.004-.032.008-.043 0 0 1.09 2.074 2.683 4.265.172.176.344.348.528.508.027.383.125.637.308.797.14.094.297.168.473.207.004 0 .004.004.008.004.058.016.129.008.187.016.3.02.668-.012 1.129-.082 0 0 .457-.079 1.04-.168.026-.008.05-.012.077-.024 2.672-.941 4.551-.25 5.871.688.168.12.332.246.485.37 7.238 5.645 19.078 6.09 23.449-.59-.195-.042-.39-.081-.57-.14-1.918 2.852-5.188 4.23-8.782 4.496zm0 0"/><path style="stroke:none;fill-rule:nonzero;fill:#311d00;fill-opacity:1" d="M51.95 72.828c-.048.078-.098.149-.141.223.043-.074.097-.149.14-.223zM51.156 65.734c.157.028.309.055.461.079-.383-1.961-1.05-3.758-1.707-5.16.375 1.492.988 3.206 1.246 5.081zM39.246 76.059c-2.914-.121-6.336-1.332-8.789-2.598-1.195-.688-4.047-2.18-5.191-2.242 1.312.289 4.05 1.82 5.02 2.472 2.109 1.149 5.648 2.758 8.96 2.883 7.918.492 12.352-3.793 12.613-8.258-.214-.035-.43-.07-.652-.109-.664 5.645-6.672 8.348-11.96 7.852zM33.23 57.71a3.105 3.105 0 0 0-2.25.919c-1.3 1.328-1.21 3.617.207 5.101.723.758 1.7 1.196 2.676 1.204a3.3 3.3 0 0 0 1.024-.16l2.144-3.169a4.01 4.01 0 0 0-1.125-2.69c-.722-.759-1.699-1.196-2.676-1.204zm0 0"/><path style="stroke:none;fill-rule:nonzero;fill:#311d00;fill-opacity:1" d="M28.785 67.031c2.98 3.817 8.227 3.836 10.875 1.035-1.129.551-5.832 3.641-10.875-1.035zM43.258 70.078a1.037 1.037 0 0 1 .926-1.504c.566 0 1.027.473 1.023 1.055 0 .281-.113.535-.289.723a1.575 1.575 0 0 0-.613-3.024 1.575 1.575 0 0 0-1.582 1.57c0 .473.21.891.535 1.18zm1.594-1.328c-.223-.246-.778-.363-1.102-.148-.145.085-.293-.032-.11-.215.36-.317 1.032-.297 1.34.16.157.23-.011.383-.128.203zm-.508-1.14c1.023-.008 1.742 1.312.883 2.199.37-.801.066-1.817-.914-1.86-1.02-.043-1.36.98-1.18 1.516-.344-.324-.223-1.852 1.21-1.856zm0 0"/><path style="stroke:none;fill-rule:nonzero;fill:#311d00;fill-opacity:1" d="M44.184 68.574a1.037 1.037 0 0 0-.922 1.504c.164.352.508.598.914.602.293 0 .554-.125.742-.328.176-.188.289-.442.289-.723a1.034 1.034 0 0 0-1.023-1.055zm-.012 1.918a.861.861 0 0 1-.86-.867c0-.48.383-.871.86-.871.473 0 .86.39.86.871 0 .48-.387.867-.86.867zm0 0"/><path style="stroke:none;fill-rule:nonzero;fill:#fff;fill-opacity:1" d="M43.64 68.387c-.183.187-.035.304.11.215.324-.215.879-.098 1.102.148.117.184.285.027.128-.203-.308-.457-.98-.477-1.34-.16zm0 0"/><path style="stroke:none;fill-rule:nonzero;fill:#fff;fill-opacity:1" d="M44.313 67.95c.98.042 1.285 1.058.914 1.859.859-.887.14-2.207-.883-2.204-1.438.004-1.555 1.536-1.211 1.856-.18-.531.16-1.555 1.18-1.512zm0 0"/><path style="stroke:none;fill-rule:nonzero;fill:#fff;fill-opacity:1" d="M45.031 69.625a.868.868 0 0 0-.863-.871.864.864 0 0 0-.855.871c0 .48.382.867.855.867a.864.864 0 0 0 .863-.867zm-1.554-.008a.685.685 0 1 1 1.371 0 .685.685 0 1 1-1.371 0zm0 0"/><path style="stroke:none;fill-rule:nonzero;fill:#311d00;fill-opacity:1" d="M44.848 69.617a.685.685 0 1 0-1.371 0 .685.685 0 1 0 1.371 0zm-1.192.024c.02-.086.059-.043.078.02.188.3.707.32.868.093.078-.117.078.043.078.043-.328.644-1.075.238-1.024-.156zm0 0"/><path style="stroke:none;fill-rule:nonzero;fill:#fff;fill-opacity:1" d="M44.68 69.797s.004-.16-.078-.043c-.16.226-.68.207-.868-.094-.02-.062-.058-.105-.078-.02-.05.395.696.801 1.024.157zm0 0"/><path style="stroke:none;fill-rule:nonzero;fill:#311d00;fill-opacity:1" d="M29.934 69.598c-.399.277-.551.836-.477 1.39.035-.062.059-.129.113-.18.34-.324.97-.214 1.403.243.433.457.507 1.09.168 1.414-.04.035-.09.047-.133.074.328.031.644-.039.879-.23.562-.473.59-1.395.07-2.133-.52-.739-1.426-.996-2.023-.578zm1.316 1.562c-.102-.222-.441-.508-.633-.547-.187-.035-.117-.343.113-.265.211.07.543.351.625.488.211.344-.015.52-.105.324zm.262 1.082c1.05-1.37-1-2.965-1.809-1.695.676-2.07 3.395.523 1.809 1.695zm0 0"/><path style="stroke:none;fill-rule:nonzero;fill:#311d00;fill-opacity:1" d="M30.969 71.055c-.43-.461-1.059-.57-1.403-.243-.05.047-.074.114-.109.18-.184.344-.09.848.277 1.235.387.406.914.515 1.27.312.043-.023.094-.035.133-.07.34-.324.265-.957-.168-1.414zm-1.133 1.047c-.367-.387-.434-.926-.145-1.2.293-.277.825-.183 1.192.203.367.387.433.922.144 1.2-.293.273-.824.183-1.191-.203zm0 0"/><path style="stroke:none;fill-rule:nonzero;fill:#fff;fill-opacity:1" d="M30.73 70.348c-.23-.078-.304.23-.113.265.192.04.531.328.633.547.094.195.316.024.105-.324-.082-.137-.414-.414-.625-.488zm0 0"/><path style="stroke:none;fill-rule:nonzero;fill:#fff;fill-opacity:1" d="M29.703 70.547c.809-1.27 2.86.324 1.809 1.695 1.586-1.168-1.133-3.765-1.809-1.695zm0 0"/><path style="stroke:none;fill-rule:nonzero;fill:#fff;fill-opacity:1" d="M30.887 71.105c-.371-.386-.903-.48-1.192-.203-.293.274-.226.813.14 1.2.368.386.903.476 1.192.203.29-.278.227-.813-.14-1.2zm-.012 1.118c-.242.175-.648.03-.95-.246-.32-.293-.347-.747-.124-.961.246-.239.687-.09.953.21.215.247.398.786.121.997zm0 0"/><path style="stroke:none;fill-rule:nonzero;fill:#311d00;fill-opacity:1" d="M29.8 71.016c-.222.214-.195.668.126.964.3.274.707.418.949.243.277-.207.094-.75-.121-.993-.266-.304-.707-.453-.953-.214zm.868 1.09c-.492.046-.934-.555-.75-.82 0 0 .133-.184.16-.013.04.293.352.602.645.68.074.016.093.125-.055.152zm0 0"/><path style="stroke:none;fill-rule:nonzero;fill:#fff;fill-opacity:1" d="M30.078 71.273c-.027-.171-.16.012-.16.012-.184.266.258.867.754.82.148-.027.125-.132.055-.152-.293-.078-.61-.387-.649-.68zm0 0"/><path style="stroke:none;fill-rule:nonzero;fill:#311d00;fill-opacity:1" d="M27.227 73.996c-1.387.824-3.817 1.754-6.16 1.98-2.555.41-3.977-1.378-3.481-2.75 0 0 0 .004-.14-.34-.141-.34-1.884-3.902-1.563-5.25-.207-.476-.313-.78-.313-.78-.015.054-.039.152-.066.261a4.202 4.202 0 0 0-.012 1.91c.336 1.258.613 2.032 1.63 4.266-.411 1.512 1.003 3.738 4.437 3.074 3.996-.562 5.8-1.926 5.972-2.058l.032-.028c-.11-.105-.223-.195-.336-.285zm0 0"/><path style="stroke:none;fill-rule:nonzero;fill:#311d00;fill-opacity:1" d="M19.406 73.164c-.18-.16-.277-.414-.304-.797a9.221 9.221 0 0 1-.528-.508c.051.067.098.137.149.204.09.535.34.886.683 1.101zM19.879 73.371s.008.004.012.004c-.004 0-.008 0-.012-.004zm0 0"/><path style="stroke:none;fill-rule:nonzero;fill:#311d00;fill-opacity:1" d="M20.96 73.383c-.616 1.262-3.034.586-2.57-1.055-.343-.43-1.18-1.785-1.18-1.785-.038.008.04.402.032.379.281.586.774 1.594.774 1.594-.38 2.386 3.05 2.562 3.289.812.199-.039.195-.012.32-.07-.148.71-.488 1.101-.895 1.305-.73.37-.945 1.023.168.945 1.133-.082 3.133-.461 5.473-1.59 0 0 .2-.11.41-.234a4.99 4.99 0 0 0-2.687-.739c-.5.012-1.239.11-1.844.2-.582.082-1.043.168-1.043.168-.46.066-.824.097-1.125.082.145.02.285.046.438.039.109-.012.355-.032.445-.051zm0 0"/><path style="stroke:none;fill-rule:nonzero;fill:#fff;fill-opacity:1" d="M17.441 72.887c.141.343.141.34.141.34-.492 1.37.93 3.16 3.484 2.75 2.344-.223 4.774-1.157 6.16-1.98.114-.067.235-.134.333-.2l-.407-.344c-.101.07-.238.152-.37.23l-.41.235c-2.34 1.129-4.34 1.508-5.474 1.59-1.117.074-.898-.574-.168-.945.407-.204.747-.594.895-1.305-.125.058-.121.031-.32.07-.239 1.75-3.668 1.57-3.29-.812 0 0-.492-1.012-.773-1.598.008.027-.07-.367-.031-.375 0 0 .836 1.355 1.18 1.785-.465 1.637 1.953 2.317 2.57 1.055-.09.02-.332.035-.441.05-.157.004-.297-.019-.442-.042-.058-.008-.129-.004-.187-.016-.004 0-.004-.004-.008-.004a1.475 1.475 0 0 1-.473-.207c-.344-.215-.598-.566-.687-1.102-.051-.066-.098-.136-.149-.203-1.594-2.191-2.683-4.27-2.683-4.27-.004.016-.004.036-.008.048-.324 1.347 1.422 4.91 1.562 5.25zm0 0"/><path style="stroke:none;fill-rule:nonzero;fill:#311d00;fill-opacity:1" d="m52.902 72.684-.257-.032c.683-1.422.855-2.89.843-4.058-.183-.031-.375-.063-.566-.098.031.996-.067 2.047-.422 3.086-.035.117-.086.234-.133.352-.004.004-.004.011-.008.02-.03.077-.058.16-.093.237-.051.114-.114.23-.172.344-.047.098-.094.195-.149.29-.039.077-.093.152-.136.226-.082.133-.16.261-.254.39h.004c.183.059.375.102.57.141 1.746.36 3.918.07 3.918.07 2.277-.152 4.11-.761 5.539-1.71-.18-.282-.363-.56-.52-.856-1.828 1.234-4.46 1.894-8.164 1.594zM64.14 66.797c.368-.035.727-.074 1.09-.113.22-.813.356-1.664.41-2.551l-.046-.008-.172-.027-.016-.176c-.113-1.133-.148-1.777-.097-1.926l.062-.184.192.032.054.011c-.015-.214-.043-.43-.066-.644l-1.031.105c.218 1.852.148 3.762-.38 5.48zM63.191 69.762c.086.164.188.308.282.465a7.88 7.88 0 0 0 .66-.934c-.293.031-.578.062-.86.09 0 0-.14.043-.378.09zM51.2 57.484c1.195.91 2.445 1.414 4.284 1.641l-4.043-8.809c-.851 2.329-.71 4.77-.242 7.168zm0 0"/><path style="stroke:none;fill-rule:nonzero;fill:#311d00;fill-opacity:1" d="M49.918 56.348c.215.21.422.414.61.586-.465-2.395-.485-4.91.656-7.184l-.286-.621a9.259 9.259 0 0 0-.953 2.516c-.324 1.503-.27 3.125-.023 4.703zM52.605 65.984c.297.051.586.102.872.149 1.496-.922 2.664-2.598 3.296-4.2l-.171-.367c-.02 0-.043-.004-.067-.004-1.433-.082-3.008-.308-4.613-1 .41 1.547.824 3.04 1.055 4.438-.286-1.195-.942-2.82-1.54-4.652a14.251 14.251 0 0 1-.667-.371c.636 2.105 1.359 3.832 1.535 4.644.086.39.195.856.297 1.363zm0 0"/><path style="stroke:none;fill-rule:nonzero;fill:#fff;fill-opacity:1" d="M57.012 56.172c.484 1.05.96 2.094 1.422 3.105h.23c1.484-.011 3.39-.14 5.414-.328a19.068 19.068 0 0 0-.887-2.668c-1.66-3.922-6.039-2.406-6.18-.11zM53.477 66.133c2.753.476 4.785.824 4.785.824.32.047.597.078.867.11l-2.356-5.133c-.632 1.601-1.8 3.277-3.296 4.199zM61.832 66.992a98.284 98.284 0 0 0 2.309-.195c.527-1.719.597-3.629.379-5.48-1.758.18-3.399.316-4.727.398-.004 0-.105 0-.262-.008A229.528 229.528 0 0 1 61.81 67a.081.081 0 0 1 .023-.008zM52.645 72.652l.257.032c3.703.3 6.336-.36 8.164-1.598a12.518 12.518 0 0 1-.629-1.352l-.105-.148c-.031 0-.059 0-.09-.004-.754-.047-2.656-.246-3.32-.406 0 0-1.399-.239-3.434-.582.012 1.168-.16 2.64-.843 4.058zM65.363 46.79c-2.394.288-3.058 6.28-1.703 7.776-.496-2.293.028-6.558 1.703-7.777zM51.926 60.563c-.164-.07-.324-.137-.489-.215.602 1.832 1.254 3.457 1.54 4.652-.23-1.398-.645-2.89-1.051-4.438zM50.523 56.934c.227.203.45.382.676.55-.469-2.398-.61-4.843.242-7.168l-.261-.566c-1.137 2.273-1.117 4.79-.657 7.184zM55.66 45.402c-.972.43-1.742 1.11-1.742 1.11-.363.277-.688.57-.988.867.03.066.062.14.097.207.434-.473 1.285-1.32 2.633-2.184zm0 0"/><path style="stroke:none;fill-rule:nonzero;fill:#311d00;fill-opacity:1" d="m64.008 38.957.047-.012c-.07-.164-.23-.55-.434-1.093zM70.48 40.773l-.12-.011c.445 1.703.331 4.004-1.977 4.515 1.168-.511.187-.863.097-.898-2.48-.57-6.605.191-7.058-.121 2.644-.254 2.844-1.57 2.629-2.93l-.41.082c.25 1.426-.34 1.965-1.137 2.262-1.207.406-2.078.418-2.117.414l-.79-.027c.34-.118 1.016-.145 1.844-.317 1.27-.262 2.004-.82 1.918-2.273-.168.035-.328.062-.496.097.016.418-.027.778-.172 1.04-.254.464-1.144.648-1.613.718 0 0-.691.098-.68.094-2.347.348-3.808.86-5.543 1.793 0 0-.44.27-.535.348-.472.3-1.054.722-1.64 1.285.082.176.164.347.25.535.3-.297.625-.59.988-.867 0 0 .77-.68 1.742-1.11-1.347.864-2.195 1.707-2.633 2.184 1.098 2.348 2.555 5.473 3.989 8.586.136-2.297 4.52-3.813 6.18.11.34.808.644 1.71.882 2.663.352-.03.703-.066 1.059-.101a22.357 22.357 0 0 0-.414-1.473c-.239-1-.418-2.367-.43-3.832-.035-.047-.074-.086-.11-.129-.085-1.8.266-3.277.266-3.277.047.074.102.137.153.21.261-1.269.707-2.464 1.453-3.394.027-.039.05-.07.078-.105l-.047-.11c.32-.41.504-.828 1.394-.972.04-.008.067-.016.11-.02.62-.082.46-.097.719-.082l.035.086c.011-.004.031-.004.039-.008 1.168-.207 1.894-.843 2.344-1.652.289-.527.359-1.23.363-1.824-.024-.043.437-.219.55-.29-.417-.183-.804-.542-1.16-1.202zm-6.82 13.793c-1.355-1.496-.691-7.488 1.703-7.777-1.675 1.219-2.199 5.484-1.703 7.777zm0 0"/><path style="stroke:none;fill-rule:nonzero;fill:#311d00;fill-opacity:1" d="m65.926 42 2.144-.027c1.094-.192 1.586-.657 1.727-1.274l-.05-.008c-.259 1.114-1.49 1.204-1.794 1.243-.43.058-1.543.058-2.285 0-.504-.04-.742-.485-.844-.766-.008.004-.02.004-.027.008.367.886 1.129.824 1.129.824zM63.07 36.29l.215.608a26.39 26.39 0 0 1-.328-1.046c-.184-.598-.156-1.047-.055-1.38-.304.856.168 1.817.168 1.817zM67.5 33.832l-.156-.012c.195.352.265.66.265.66l1.692 3.93h.039c-.555-1.347-1.758-4.094-1.758-4.094l.656.059c.39 1 .961 2.707 1.399 4.05h.066c-.203-.612-1.355-4.148-1.355-4.148l-.067-.199.164-.14.067-.028-.38-.027zm0 0"/><path style="stroke:none;fill-rule:nonzero;fill:#fff;fill-opacity:1" d="M63.36 41.469c.085 1.453-.65 2.011-1.919 2.273-.828.172-1.504.2-1.847.317l.789.027c.039.004.91-.008 2.12-.414.794-.297 1.384-.836 1.134-2.262l-.278.059zM61.7 35.375c-.083-.258-.204-.754-.06-1.184 0 0-.542.434-.058 1.582l1.234 3.407c.086-.02.172-.035.258-.051-.07-.207-.144-.418-.234-.64a73.371 73.371 0 0 1-1.14-3.114zm0 0"/><path style="stroke:none;fill-rule:nonzero;fill:#fff;fill-opacity:1" d="M69.797 40.7c-.14.612-.633 1.085-1.727 1.273L65.926 42s-.762.063-1.13-.824c-.245.047-.495.101-.745.152.215 1.36.011 2.672-2.63 2.926.454.312 4.579-.45 7.06.121.09.04 1.07.39-.098.902 2.308-.515 2.422-2.812 1.976-4.515l-.367-.035zM68.238 34.375l-.656-.059s1.2 2.746 1.758 4.094l.297.016c-.438-1.34-1.008-3.051-1.399-4.051zM63.285 36.898l-.215-.613s-.476-.957-.168-1.812a1.52 1.52 0 0 1 .133-.301 3.031 3.031 0 0 0-.566-.027c-.34.03-.66.046-.426.855.172.602.234.746.367 1.117.164.446.684 1.785 1.067 2.93l.53-.094-.386-1.101a24.925 24.925 0 0 1-.336-.954zm0 0"/><path style="stroke:none;fill-rule:nonzero;fill:#311d00;fill-opacity:1" d="M62.863 41.566c.168-.035.328-.066.496-.097l.282-.059c.136-.031.273-.058.41-.082.25-.055.5-.105.746-.152.008-.004.02-.004.027-.008-.047-.133-.066-.234-.066-.234 1.57-.2 1.652-.684 1.652-.684.457-.941-.57-1.316-.57-1.316-.485-.2-1.742.117-1.742.117s-.016-.043-.043-.102c-.016 0-.032.004-.047.008-.176.031-.352.059-.531.094-.133.023-.27.054-.403.078-.086.016-.172.035-.261.05-.165.032-.333.067-.497.098-3.726.746-7.375 1.727-9.421 2.586 0 0-1.536.555-2.622 1.442-.043.035-.054.062-.058.086.113-.036.226-.051.34-.051.289.004.515.133.644.363.024.047.29.613.719 1.524.703-.457 1.422-.918 2.324-1.243 2.645-1.074 5.696-1.808 8.621-2.418zm-11.105 3.192s-.344-.703-.438-.93c-.164-.394-.265-.379-.425-.473.496-.335 1.226-.68 2.101-1.042 2.531-1.06 7.781-2.41 12.32-3.145.485-.066.887.266.938.613.047.313-.113.672-.707.766l-.277.055c-3.63.726-7.747 1.55-11.188 2.945-1.082.39-1.719.75-2.324 1.21zM49.266 45.57l-.09-.195c.008.016.008.027.015.043l.075.152zM49.129 45.238a3.574 3.574 0 0 1 .004-.539c.008-.008.012-.011 0 .004 0 0-.09.223-.004.535zm0 0"/><path style="stroke:none;fill-rule:nonzero;fill:#311d00;fill-opacity:1" d="M47.45 46.14c-.423.626-1.934 3.016-3.282 5.196.488-.211.965-.098 1.273.262.184.187.532.566.961 1.035a631.06 631.06 0 0 1 2.68-4.297c.305-.484.625-.973.852-1.309l-.196-.422c-.101.141-.66.88-1.043 1.477l-2.566 4.172-.684-.754s-.36-.309-.675-.277c1.386-2.25 2.62-4.192 3.05-4.832.399-.649 1.211-1.582 1.313-1.696.02-.207.07-.43.187-.617.032-.05.075-.094.114-.14-.102.078-.516.402-.696.605-.43.496-.804.934-1.289 1.598zM86.012 57.695l-.227-.543c-.472-1.226-1.324-1.457-2.672-1.289l-1.172.125c-2.351.211-6.132.598-9.296.063l.722 1.734c1.29-.2 2.395-.387 3.164-.539l.215-.07c.074-.168.23-.313.457-.414.43-.196 1.14-.239 1.684.125l.023.043c.653-.137 1.516-.309 3.606-.602.226.008.414.067.582.145.16-.024.277-.035.277-.035.41.07.586.308.637.64.015.102.062.418-.188.625-.02.234-.101.457-.265.613 0 0-.04.012-.094.032.34.82.836 2.382.976 2.957l.32 1.32c.196-.047.391-.09.575-.14h.008c-.059-.005-.098-.028-.156-.024-.532-2.402-1.286-4.258-1.286-4.258.973-.715.621-1.82-.039-2.02 0 0 1.2-.253 1.754 1.82 2.008 5.626 3.567 13.34 3.121 16.005 0-.344-.531-.98-1.445-1.168 0 0 .02-.356-.008-.785-.23-2.32-1.07-6.547-1.07-6.547.855-.278 1.078-1.512.508-2.324.117.195.203.402.242.613.12.676-.113 1.508-.93 1.754a5.836 5.836 0 0 0-.254.066l.051.285c.348 1.871.871 4.696 1.07 6.434.008.172-.007.309-.035.426.688.136 1.695.488 1.899 1.41l.004.02v.015c0 .04.136.645-.344 1.094.976-.77.933-2.45.93-2.535-.364-4.93-1.473-9.848-3.34-15.067zm-9.309-.511c-1.027.257-3.344.515-3.344.515l-.484-1.113c2.484.34 4.285.144 4.285.144-.43.055-.457.454-.457.454zm2.227-.313c-.313-.254-.625-.254-.625-.254.742.059 3.054-.176 3.054-.176-.554.157-2.425.43-2.425.43zM64.598 50.344l-.153-.207s-.351 1.476-.265 3.273c.035.047.074.086.11.13 1.772 2.187 4.175 3.792 6.616 4.6a79.483 79.483 0 0 0-.234-.554c-3.738-1.23-6.39-4.754-6.39-4.754.015-1.113.183-1.914.183-1.914 2.414 3.328 5.07 4.613 5.406 4.766-.082-.188-.16-.375-.242-.563a2.744 2.744 0 0 1-.527-.332c-.844-.52-2.86-2.074-4.504-4.445zm0 0"/><path style="stroke:none;fill-rule:nonzero;fill:#311d00;fill-opacity:1" d="M79.926 58.965c.023.05.047.113.066.168 2.274-.414 3.211-.696 3.469-.785l.094-.032c.164-.156.246-.379.265-.613a.695.695 0 0 1-.215.129c-.246.133-.69.23-.69.23-.517.13-1.099.278-1.907.43-.582.106-1.16.23-1.113.203-.125-.27-.262-.703-.622-1.394a51.48 51.48 0 0 0 3.262-.715c.184-.05.395-.086.559-.113a1.404 1.404 0 0 0-.582-.145c-2.09.293-2.953.461-3.606.602zM75.691 63.36l-1.379-3.305c-.12.02-.25.039-.374.058a129.08 129.08 0 0 0 1.332 3.239c.136 0 .273.003.421.007zM80.816 73.328c-.011-.156-.023-.328-.039-.512-3.101-1.601-5.12-5.07-5.12-5.07.316-.058 1.542-.289 1.542-.289 1.262 1.895 3.11 3.191 3.399 3.387-.024-.188-.043-.375-.067-.563a12.382 12.382 0 0 1-2.91-2.96c-.777.156-1.605.308-2.469.46 1.473 2.442 3.489 4.371 5.664 5.547zM73.55 63.25c-.515-1.227-1.077-2.582-1.206-2.89-.156.023-.313.042-.469.066.418.988.809 1.914 1.152 2.73zM67.586 45.742c-.04.008-.07.016-.106.02-.894.148-1.074.562-1.398.972l.047.11c.273.636 1.812 4.285 3.5 8.277.078.188.16.375.238.563a.307.307 0 0 0 .035.015l.774 1.887h-.004c.078.184.156.367.234.555v.004c.871-.122 1.696-.243 2.457-.36l-.722-1.73-4.301-10.309-.035-.082c-.254-.016-.094 0-.72.082zm5.355 12.051c-.699.125-1.543.223-1.543.223L66.453 46.43c.531-.578 1.395-.598 1.395-.598.324.656 5.093 11.961 5.093 11.961zM88.766 74.207v-.02l-.004-.015c-.2-.922-1.211-1.274-1.899-1.414-.324-.063-.582-.082-.633-.086a13.036 13.036 0 0 1-3.082-.899c.082.868.13 1.707.145 2.532.148.043.3.097.453.129-.137.027-.3.05-.457.074.008.547.012 1.094-.016 1.61-.023.39-.171.722-.425.948 4.312-.98 5.047-1.34 5.312-1.582.106-.058.188-.12.262-.187.484-.45.348-1.055.344-1.09zm-5.512 2.363c.14-.629.113-1.629.113-1.629 5.055-1.086.254-1.543.254-1.543 1.113.344 1.09.743 1.09.743-.488.027-1.344-.227-1.344-.227.028-.316-.058-1.602-.058-1.602 1.312.575 1.523.41 2.882.715 1.403.317.715.887.715.887-.715.887-3.34 1.258-3.34 1.258 4.399-.57 4-1.774 4-1.774 1.801 1.172.028 2-.886 2.258-.809.227-3.426.914-3.426.914zm0 0"/><path style="stroke:none;fill-rule:nonzero;fill:#311d00;fill-opacity:1" d="M75.691 63.36c-.148-.005-.285-.008-.421-.008.425.996.73 1.68.73 1.68-.258.113-1.543.284-1.543.284-.117-.222-.496-1.105-.906-2.066l-.52-.094-7.41-1.3-.055-.008-.195-.035-.062.187c-.047.145-.016.793.097 1.922l.016.176.176.027.043.008 8.05 1.36a401.3 401.3 0 0 0 4.207-.743l1.004-.18c.227-.082.293-.34.192-.652-.004-.008-.078-.242-.2-.598-1.214.051-2.328.051-3.203.04zm-1.843 1.745-8.196-1.359c.07-.8.035-1.488.035-1.488l7.56 1.383c.144.41.6 1.464.6 1.464zm5.14-1.332c.227.774-.37.735-.37.735l-2.2.457-.543-1.2c1.914.028 3.113.008 3.113.008zM82.266 66.43c.992-.184 2.843-.645 3.511-.817.133-.031.235-.058.254-.062.817-.246 1.051-1.082.93-1.754a1.82 1.82 0 0 0-.238-.613c-.274-.387-.727-.664-1.383-.7h-.008c-.184.051-.379.094-.574.141-1.043.242-2.192.41-3.34.523.316 1.059.598 2.16.848 3.282zm4.25-2.743s.343 1.04-.54 1.41c0 0-.66.333-3.687.876 0 0-.246-.942-.36-1.426 0 0 2.56-.535 3.563-.906 0 0-.023-.332-.515-.325 0 0-2.602.657-3.2.715l-.144-.398s2.23-.43 2.972-.602c0 0 1.57-.543 1.91.657zm0 0"/><path style="stroke:none;fill-rule:nonzero;fill:#311d00;fill-opacity:1" d="M83.27 76.121c.027-.52.023-1.066.02-1.61 0-.07.003-.136 0-.206a31.4 31.4 0 0 0-.142-2.528 44.223 44.223 0 0 0-.882-5.347 47.908 47.908 0 0 0-.848-3.282c-.43-1.441-.91-2.8-1.426-4.015a2.146 2.146 0 0 0-.066-.168l-1.02-2.04-.023-.042c-.54-.363-1.25-.32-1.684-.121-.222.101-.379.242-.453.41l-.215.074a85.06 85.06 0 0 1-3.164.535 172.504 172.504 0 0 1-8.234 1.059c-.356.039-.707.07-1.055.105-2.023.192-3.93.32-5.414.332h-.23c-.461-1.011-.938-2.058-1.422-3.105a1389.057 1389.057 0 0 0-3.989-8.586c-.03-.07-.066-.145-.093-.207l-.254-.535c-.29-.617-.543-1.164-.758-1.617-.43-.91-.695-1.477-.719-1.524-.129-.23-.355-.36-.644-.363-.114 0-.227.015-.34.05-.3.087-.582.29-.785.547-.035.047-.078.09-.11.141-.117.192-.168.41-.187.617 0 .004.004-.004 0 0-.02.196-.012.383-.008.54.016.046.027.09.047.14l.09.191c.18.368.488 1.016.488 1.016.008-.008 0 .004-.012.023l.192.422.965 2.102.285.621.261.566 4.04 8.809c-1.836-.227-3.09-.73-4.286-1.637-.222-.172-.449-.351-.672-.55a26.361 26.361 0 0 1-.605-.586c-1.129-1.122-2.547-2.66-3.512-3.715a59.359 59.359 0 0 0-.965-1.04c-.308-.359-.785-.472-1.273-.257-.11.05-.223.094-.332.183a1.335 1.335 0 0 0-.5 1.262c.031-.055.062-.101.098-.16 0 0-.016.305.5.848a64.7 64.7 0 0 0 1.207 1.234c-.04.059-.063.102-.098.156 1.355 1.352 2.914 2.836 2.926 2.848.922 1 1.863 1.715 2.8 2.266.223.128.446.261.669.37.164.079.324.145.484.215 1.605.692 3.18.918 4.613 1 .024 0 .043.004.067.004l.171.368 2.352 5.132c-.266-.03-.547-.062-.867-.109 0 0-2.031-.348-4.781-.824-.286-.047-.575-.098-.875-.149-.32-.054-.649-.113-.985-.171a16192.767 16192.767 0 0 1-12.227-2.098l-.285.418c1.25.215 18.395 3.156 18.395 3.16 2.813.418 4.348.16 4.383.156 5.996-.433 11.129-1.355 16.094-2.25l1.027-.187.012-.004.02-.004c.37-.059.624.324.624.324.149-.242-.195-1.644-.195-1.644-.012-.032-.91-2.875-1.36-4.008l.004.02c-.011-.044-.246-.551-.675-.637 0 0 .058-.36-.059-.586 0 0-.055.543-.57.656-4.559.914-12.184 1.855-16.832 2.133-.02 0-1.989-.016-3.485-.117-2.523-.141-5.406-.735-8.195-3.754-.031-.032-3.113-2.97-4.36-4.328-.308-.438-.144-.926.184-1.184.23-.18.742-.348 1-.05.543.726 3.485 3.816 4.992 5.398 1.711 1.332 3.133 1.996 5.52 2.296 1.215.157 2.969.176 3.043.172 5.527-.07 14.191-1.367 17.758-2.004.43-.054.828.34.828.34l-.117-.504.015-.14c.008-.051.203-.203.36-.278.312-.14.726-.144 1.07.137 2.402 4.43 4.605 12.793 4.227 18.86-.02.328-.16.597-.415.726 0 0-.68.492-1.222-.367 0 0 .136.375-.461.574-3.7.953-7.66 1.008-11 .125-3.031-.797-6.613-2.55-8.598-6.957.485-.656 1.446-.664 1.446-.664 3.085 6.61 10.964 7.762 17.785 6.02 0 0 .476-.09.715.246.199-.399.21-1.711.21-1.711-.007-.192-.085-4.188-.84-6.891-.007-.098-.175-.578-.46-.664 0 0-.121-.79-.141-.64-.078.652-.902.695-.902.695-4.203 1.004-10.707 1.832-15.848 2.351-.008 0-.398.059-1.094.09l-.554.016c-.977.007-2.528.007-4.098-.328 0 0-18.129-2.97-18.137-2.973-.273-.09-.355-.43-.355-.43-.086-.261-.043-.586.02-.832l-.79 1.164a1.014 1.014 0 0 1-.281.281c.937.16 8.117 1.376 13.414 2.274.223.035.438.074.652.11.364.062.72.12 1.059.179.195.031.383.066.57.098l3.434.578c.66.16 2.562.36 3.316.406.032.004.059.004.094.008l.102.144c.187.47.398.918.629 1.356.16.297.343.574.523.855 1.75 2.75 4.488 4.73 8.012 5.66 3.644.965 7.78.872 11.765-.3.477.246.934.097 1.246-.067.086-.047.164-.105.235-.168.254-.226.402-.558.426-.949zM59.004 61.746l2.32 5.242s-.629.14-1.715.059c-.28-.621-.62-1.426-2.113-4.684.508-.8 1.508-.617 1.508-.617zm.789-.027a122.67 122.67 0 0 0 4.727-.403l1.03-.105a175.83 175.83 0 0 0 6.325-.785c.16-.024.313-.043.469-.067-.016-.043-.028-.07-.028-.07.27-.031 1.598-.227 1.598-.227a.765.765 0 0 1 .023.055 59.452 59.452 0 0 0 3.078-.566s.344-.059.462.027c.187.14.199.242.199.242v.012l.008.012c.32.812.906 2.558 1.21 3.476.118.356.196.59.2.598.101.312.035.57-.192.652l-1.004.18c-1.382.25-2.78.5-4.207.742-2.683.457-5.472.88-8.46 1.195-.364.04-.72.079-1.09.114-.754.07-1.524.136-2.309.195 0 0-.016.004-.023.008a222.256 222.256 0 0 0-2.278-5.293c.157.008.254.008.262.008zm-10.2-16.551c-.14-.344-.027-.629.122-.879.191-.324.574-.512.832-.508.183 0 .234.094.246.11l7.133 15.332s-1.047.05-1.801-.106a1047.565 1047.565 0 0 0-6.531-13.949zm14.54 24.125c3.422-.367 7.508-.906 11.02-1.516.863-.148 1.69-.3 2.468-.457.703-.14 1.367-.28 1.969-.425.152-.043.215 0 .238.015.11.078.152.29.156.352l.004.023.008.024c.227.812.402 1.898.535 2.968.024.192.047.38.067.567l.058.039c.055.515.14 1.945.14 1.945-.007-.004-.01-.008-.015-.012.012.184.028.352.035.512.043.602.063.992.063 1.004-.004.496-.281.676-.32.7-6.356 1.722-13.75.816-17.086-4.805-.094-.157-.196-.301-.282-.47l-.296-.284c.238-.047.378-.09.378-.09.282-.028.567-.059.86-.09zm0 0"/><path style="stroke:none;fill-rule:nonzero;fill:#311d00;fill-opacity:1" d="M39.488 61.586c-.644-.363-.902-.797-.98-1.195l-.11.21-2.52 3.758a.942.942 0 0 0-.097.977c.207.437.727.766 1.266.805.285.015.539-.063.75-.207a.965.965 0 0 0 .281-.282l.79-1.164c.062-.226.144-.39.163-.367l.078.012.282-.418 1.058-1.567c-.375-.222-.71-.421-.96-.562zm-1.761 3.785c-.168.258-.43.297-.622.281-.367-.023-.746-.257-.882-.539-.082-.175-.063-.347.062-.52l2.399-3.663c.148.289 1.351 1.011 1.351 1.011l-2.308 3.43zM43.223 62.586s.05.144.16.348v-.004c.097.18.258.343.437.453 1.325.785 2.055-.215 2.063-.227.004-.008.61-.793-.274-1.66-.023-.02-.558-.496-1.293-.406-.074-.3-.457-1.153-1.554-1.117h-.008l-.008.004c-.883.058-1.086.535-1.184.808 0 0-.226.602.106 1.121.004.012.43.852 1.555.68zm1.156-1.273c.992-.032 1.766.96 1.27 1.687l-.18.027c-.864.114-1.348-.23-1.492-.996.132-.097.351-.363.402-.718zm-1.152-1.055c.492.156.847.586.82 1.031l.058.004c-.039.32-.378.758-1.07.652-.035-.14-.039-.277-.047-.437a.97.97 0 0 0 .375.058c-.004-.062.016-.199.016-.199a1.3 1.3 0 0 1-.395-.113c.012-.375.09-.715.243-.996zm-1.145.21c.223-.183.398-.269.73-.25-.14.22-.195.544-.214.88-.067-.059-.121-.063-.188-.133v.238c.043.074.11.102.2.16 0 .207.011.367.05.508-.047-.016-.074-.055-.12-.074-.685-.387-.458-1.328-.458-1.328zm-.254.305c-.113 1.426 1.192 1.633 1.922 1.364.16 1.156 1.164 1.187 1.652 1.11-.613.386-1.785.124-2-.962-.922.281-1.965-.46-1.574-1.512zm0 0"/><path style="stroke:none;fill-rule:nonzero;fill:#311d00;fill-opacity:1" d="M39.484 61.586c.254.14.59.34.965.562 1.485.887 3.586 2.192 3.586 2.192 1.453.922 2.57-.399 2.926-.871.273-.367 1.117-1.504 1.086-2.473-.027-.945-.754-1.45-1.399-1.875l-3.015-1.976a4.96 4.96 0 0 1-.11.175l-.406-.21-.254.398c-.246.195-.765-.004-1.09-.317-.074-.07-.433-.441-.214-.695l.007-.016.012-.011c.004-.012.031-.055.074-.13l-.398-.21c.02-.027.047-.07.074-.113a1.226 1.226 0 0 0-.93.566c-.265.531-1.414 2.414-1.617 2.621-.12.117-.383.617-.273 1.188.078.398.336.832.976 1.195zm4.016-4.023c1.16.746 2.684 1.742 3.34 2.242 1.183.898.547 1.972.547 1.972.117-.648-.176-1.293-.93-1.8-.656-.442-3.227-2.149-3.227-2.149l.274-.266zm-2.52-.93c-.05.867 1.278 1.562 1.907 1.39l3.363 2.25c.504.364 1 .985.707 1.82-.043-.78-1.02-1.402-1.02-1.402s-3.613-2.129-4.722-2.82c-.633-.398-.57-.95-.235-1.238zm-1.683 2.683c.664-.937.988-1.472 1.133-1.718.144.312.586.57.586.57 1.12.7 3.468 2.125 4.148 2.5.727.406.875.598.875.598.844.8.684 1.597.27 2.152-.47.629-1.364 1.027-2.11.531l-1.015-.62v-.009l-.368-.218-3.152-1.934-.008-.008-.008-.004s-.527-.242-.656-.73c-.09-.324.016-.696.305-1.106zm0 0"/><path style="stroke:none;fill-rule:nonzero;fill:#311d00;fill-opacity:1" d="m41.254 56.133.398.21c.172-.28.664-1.09 1.864-3.038.457.633 1.187 1.293 1.187 1.293l-1.59 2.511.41.215c.028-.05.075-.12.11-.18.277-.449.722-1.167 1.41-2.285.035-.054.062-.093.098-.152 0 0-.692-.691-1.207-1.234-.512-.543-.5-.848-.5-.848a1.52 1.52 0 0 1-.098.156c-1.102 1.79-1.746 2.817-2.008 3.235l-.074.117zM68.281 34.078l.067.2s1.152 3.535 1.351 4.152l.102.004c1.09.105 2.523.312 3.02.48l-.04-.012c.578.086.883.711.836 1.246a1.152 1.152 0 0 1-.199.54c.523-.563.332-1.645-.438-1.868-.683-.199-1.085-.199-1.257-.226l-2.055-4.63 1.2-.515 2.94 5.399c1.68 2.664-1.433 3.632-2.628 2 0 0 .215-.004.53.039a4.838 4.838 0 0 0-1.07-.102l-.16-.012c.356.66.743 1.02 1.16 1.204.376.164.774.195 1.208.164.875-.059 1.574-.57 1.882-1.395.012-.031.27-.828-.44-2.012l-3.24-5.89-.175.07-2.363 1-.067.027zm1.016.031 1.941 4.453c-.285-.054-1.027-.14-1.027-.14l-1.457-4.086zm0 0"/><path style="stroke:none;fill-rule:nonzero;fill:#311d00;fill-opacity:1" d="m69.746 40.691.05.008.196.031.367.032.118.011.16.012c.468 0 .82.043 1.074.102.176.027.375.062.613.133.516.07.864-.086 1.09-.333a1.16 1.16 0 0 0 .203-.539c.047-.535-.262-1.16-.84-1.246l.043.012c-.496-.168-1.93-.375-3.023-.48l-.098-.004-.066-.004-.297-.016h-.04l.141.324c.36.875.415 1.5.305 1.957zm2.984-1.43.02.009.023.003c.297.04.473.426.446.747-.016.175-.121.566-.711.566-.39-.117-1.676-.309-2.653-.32 0-.602-.367-1.457-.367-1.457.793.078 2.825.312 3.242.453zM65.777 33.68s-.492.113-.257.972c0 0 .043.102.074.196.129.246.273.57.668.918 0 0-.02.343.078.757l.015.051c.098.324.184.574.422.848.57.656 1.211.289 1.035-.504-.16-.7-.468-.961-.773-1.266.059-1.242-.71-2.132-1.262-1.972zm1.305 3.648c-.344-.34-.52-.715-.555-1.262.54.114.871.782.555 1.262zm-.719-1.84c-.289-.183-.656-.894-.668-1.336.684.008.88 1 .668 1.336zm0 0"/><path style="stroke:none;fill-rule:nonzero;fill:#fff;fill-opacity:1" d="M66.176 33.309c-.352-.145-1.215-.063-1 .933 0 0 .02.11.074.238l.176.426.672 1.63.02.058 1.112 2.597s.258.746.258.946l1.903-.004s-.04-.485-.47-1.567c-.323-.82-1.433-3.355-1.66-3.882-.257-.602-.6-1.172-1.09-1.371zm.863 2.34c.305.308.613.566.77 1.265.18.793-.461 1.164-1.032.508-.238-.274-.324-.524-.422-.848l-.015-.05c-.098-.415-.078-.758-.078-.758-.395-.352-.543-.672-.668-.922-.035-.09-.078-.192-.078-.192-.23-.859.261-.972.261-.972.551-.164 1.317.73 1.262 1.968zm0 0"/><path style="stroke:none;fill-rule:nonzero;fill:#fff;fill-opacity:1" d="M65.695 34.152c.008.442.38 1.153.668 1.336.211-.336.016-1.328-.668-1.336zM66.527 36.066c.035.547.207.922.555 1.262.316-.48-.016-1.148-.555-1.262zM66.86 39.375c-.184-.477-1.598-3.742-1.942-4.543-.215-.492-.238-.824-.227-1.004.004-.113.024-.113.024-.113l-.598.316c-.43.543.14 1.973.14 1.973s.43 1.34.973 2.684c1.43-.372 2.676 2.218-.066 2.445.25 1.047 2.61.61 1.695-1.758zm0 0"/><path style="stroke:none;fill-rule:nonzero;fill:#fff;fill-opacity:1" d="m64.324 38.86.516-.098-.98-2.73s-.419-.954-.165-1.81l-.437.208s-.278.535.027 1.457a142.49 142.49 0 0 0 1.04 2.972zM66.953 41.602c1.902.132 2.238-.684 2.238-.684-.609-.012-1.75-.012-1.75-.012-.03.371-.488.696-.488.696zM44.773 51.223c.313-.028.672.277.672.277l.688.754 2.562-4.172c.383-.598.942-1.332 1.043-1.477.016-.02.02-.027.016-.02l-.488-1.015a1.723 1.723 0 0 1-.075-.152c-.007-.016-.007-.027-.015-.043a.742.742 0 0 1-.047-.14c-.086-.31.004-.532.004-.532.012-.016.008-.012 0-.004 0 0 .004-.004 0 0-.102.114-.914 1.047-1.309 1.696-.43.64-1.664 2.582-3.05 4.828zM78.3 56.617s.317 0 .63.254c0 0 1.87-.273 2.425-.43 0 0-2.308.235-3.054.176zM65.688 62.262s.039.683-.04 1.484l8.196 1.36s-.457-1.055-.598-1.465zM76.418 64.965l2.2-.461s.597.043.37-.73c0 0-1.203.015-3.113-.012zM66.453 46.43l4.945 11.586s.844-.098 1.543-.223c0 0-4.765-11.305-5.09-11.961 0 0-.867.02-1.398.598zM74.457 65.316s1.285-.171 1.543-.285c0 0-.305-.683-.73-1.68a129.08 129.08 0 0 1-1.332-3.238c-.008-.015-.016-.035-.024-.054 0 0-1.332.199-1.602.23l.032.07c.125.309.687 1.664 1.207 2.887.41.965.789 1.848.906 2.07zM77.2 67.457l-1.544.29s2.02 3.468 5.121 5.07c.008.003.012.007.02.011 0 0-.086-1.43-.145-1.941l-.054-.043c-.29-.196-2.137-1.492-3.399-3.387zM87.566 73.398s.399 1.2-4 1.77c0 0 2.63-.371 3.34-1.254 0 0 .688-.57-.715-.887-1.359-.308-1.566-.144-2.882-.715 0 0 .086 1.286.058 1.598 0 0 .856.258 1.344.23 0 0 .023-.402-1.09-.745 0 0 4.8.46-.254 1.543 0 0 .028 1.003-.113 1.628 0 0 2.617-.687 3.426-.914.914-.257 2.683-1.082.886-2.254zM61.324 66.988l-2.32-5.242s-1.004-.184-1.508.617c1.488 3.258 1.832 4.059 2.113 4.684 1.086.082 1.711-.059 1.711-.059zM57.922 59.219 50.789 43.89c-.008-.016-.062-.11-.242-.114-.258-.004-.64.188-.836.512-.145.246-.262.531-.117.875.004.012 3.566 7.465 6.531 13.953.75.156 1.797.102 1.797.102zm0 0"/><path style="stroke:none;fill-rule:nonzero;fill:#fff;fill-opacity:1" d="M38.867 64.488c-.066.246-.11.57-.02.832 0 0 .083.34.356.43.008.004 18.137 2.973 18.137 2.973 1.57.336 3.12.336 4.097.328l.551-.016c.7-.031 1.086-.09 1.098-.09 5.137-.52 11.64-1.347 15.848-2.347 0 0 .82-.047.902-.7.016-.144.14.641.14.641.286.086.454.57.462.664.75 2.707.832 6.7.84 6.89 0 0-.016 1.313-.216 1.712-.234-.34-.71-.246-.71-.246-6.82 1.746-14.7.59-17.79-6.02 0 0-.957.008-1.445.668 1.988 4.402 5.57 6.156 8.598 6.953 3.344.883 7.3.828 11-.125.601-.2.465-.57.465-.57.543.855 1.218.363 1.218.363.254-.129.395-.394.418-.726.38-6.067-1.824-14.43-4.226-18.86a1.011 1.011 0 0 0-1.07-.137c-.16.075-.356.227-.36.278l-.02.144.122.5s-.403-.394-.828-.336c-3.57.633-12.23 1.93-17.758 2-.074.004-1.828-.015-3.043-.171-2.387-.297-3.809-.965-5.52-2.297-1.511-1.582-4.453-4.672-4.992-5.399-.258-.297-.77-.129-1 .055-.328.254-.492.742-.184 1.18 1.243 1.359 4.329 4.296 4.36 4.328 2.789 3.023 5.668 3.613 8.195 3.754 1.496.105 3.465.117 3.485.117 4.648-.278 12.273-1.219 16.828-2.133.515-.113.574-.656.574-.656.113.226.055.586.055.586.433.086.668.593.68.636l-.009-.02c.454 1.134 1.352 3.977 1.36 4.009 0 0 .344 1.402.2 1.644 0 0-.259-.379-.63-.324l-.031.008-1.027.187c-4.961.895-10.094 1.82-16.094 2.25-.031.004-1.567.262-4.38-.156-.003 0-17.144-2.941-18.394-3.16l-.078-.012c-.02-.023-.101.14-.16.367zm0 0"/><path style="stroke:none;fill-rule:nonzero;fill:#fff;fill-opacity:1" d="m39.645 61.156.011.004.008.008 3.152 1.934.368.218v.004l1.015.621c.746.496 1.64.098 2.11-.527.414-.559.574-1.352-.27-2.152 0 0-.148-.196-.879-.602-.676-.375-3.027-1.797-4.144-2.496 0 0-.446-.258-.586-.574-.145.25-.47.785-1.133 1.722-.293.41-.395.786-.309 1.11.133.484.653.726.657.726zm1.914-.37c.101-.274.304-.75 1.187-.81l.004-.003h.008a1.501 1.501 0 0 1 1.558 1.117c.735-.09 1.27.387 1.293.406.88.867.278 1.652.274 1.66-.008.012-.738 1.016-2.063.227a1.216 1.216 0 0 1-.437-.453l-.004.004c-.106-.204-.156-.348-.156-.348-1.125.172-1.551-.668-1.559-.68-.332-.52-.105-1.12-.105-1.12zM47.387 61.777s.636-1.074-.543-1.972c-.66-.5-2.184-1.496-3.34-2.242l-.274.261s2.567 1.711 3.227 2.153c.754.503 1.047 1.152.93 1.8zm0 0"/><path style="stroke:none;fill-rule:nonzero;fill:#fff;fill-opacity:1" d="M41.215 57.867c1.11.696 4.722 2.824 4.722 2.824s.977.618 1.02 1.403c.297-.836-.203-1.457-.707-1.82l-3.363-2.25c-.625.171-1.957-.528-1.907-1.391-.335.285-.398.84.235 1.234zM45.469 63.027l.18-.03c.496-.724-.278-1.716-1.27-1.684-.05.351-.27.62-.402.718.144.766.628 1.11 1.492.996zm0 0"/><path style="stroke:none;fill-rule:nonzero;fill:#fff;fill-opacity:1" d="M43.402 62.285c.215 1.086 1.391 1.348 2 .961-.488.078-1.492.047-1.652-1.105-.73.265-2.035.058-1.922-1.368-.39 1.051.652 1.797 1.574 1.512zM79.277 57.3c.356.692.493 1.126.618 1.395-.051.032.535-.093 1.113-.203.808-.152 1.39-.3 1.906-.426 0 0 .445-.101.691-.234.098-.031.157-.082.215-.129.254-.207.203-.523.192-.621-.055-.336-.227-.574-.637-.645 0 0-.117.012-.281.04a4.725 4.725 0 0 0-.559.113 54.938 54.938 0 0 1-3.258.71zM81.777 64.031c.598-.058 3.196-.715 3.196-.715.496-.011.52.325.52.325-1.005.37-3.563.906-3.563.906.113.484.36 1.426.36 1.426 3.026-.543 3.683-.875 3.683-.875.886-.371.543-1.41.543-1.41-.34-1.2-1.91-.657-1.91-.657-.747.172-2.973.598-2.973.598zm0 0"/><path style="stroke:none;fill-rule:nonzero;fill:#fff;fill-opacity:1" d="M86.723 63.184c.57.812.343 2.046-.508 2.324 0 0 .836 4.226 1.066 6.547.028.43.008.78.008.78.914.192 1.45.83 1.45 1.173.445-2.668-1.118-10.38-3.126-16.004-.55-2.078-1.75-1.82-1.75-1.82.657.199 1.008 1.304.035 2.02 0 0 .758 1.855 1.29 4.253.058 0 .097.023.152.023.66.04 1.113.317 1.383.704zM64.465 50.918s-.168.797-.188 1.91c0 0 2.657 3.527 6.395 4.754h.004l-.774-1.883s-.011-.008-.035-.015c-.332-.153-2.988-1.442-5.402-4.77zM72.875 56.586l.484 1.113s2.317-.254 3.344-.511c0 0 .027-.399.457-.458 0 0-1.8.2-4.285-.144zM38.684 60.93l-2.399 3.664c-.125.172-.144.344-.062.52.136.28.515.515.882.538.192.016.454-.023.622-.28l2.308-3.43s-1.203-.723-1.351-1.012zM65.27 40.602l.277-.055c.594-.094.75-.457.707-.766-.055-.347-.453-.68-.938-.613-4.539.734-9.789 2.086-12.32 3.145-.875.363-1.605.71-2.101 1.042.16.09.261.079.425.473.09.227.438.93.438.93.605-.461 1.238-.82 2.32-1.211 3.442-1.395 7.559-2.219 11.192-2.945zM41.566 56.484l-.011.012c-.215.258.144.625.215.695.328.313.847.512 1.093.317l.25-.399 1.59-2.511s-.734-.66-1.187-1.293c-1.2 1.949-1.692 2.758-1.864 3.039-.043.07-.07.117-.074.125zM69.855 40.266c.977.011 2.262.199 2.653.316.594 0 .695-.39.71-.562.028-.32-.148-.708-.445-.75l-.023-.004-.02-.008c-.418-.14-2.449-.371-3.242-.45 0 0 .367.856.367 1.458zm0 0"/><path style="stroke:none;fill-rule:nonzero;fill:#fff;fill-opacity:1" d="M72.324 41.02a4.296 4.296 0 0 0-.613-.133c-.316-.043-.531-.04-.531-.04 1.191 1.633 4.308.665 2.629-2l-2.942-5.398-1.199.516 2.055 4.629c.172.027.574.027 1.257.226.77.223.961 1.305.438 1.867-.227.247-.578.403-1.094.333zm0 0"/><path style="stroke:none;fill-rule:nonzero;fill:#fff;fill-opacity:1" d="m71.238 38.563-1.941-4.454-.543.227 1.453 4.086s.746.086 1.031.14zM43.363 61.566a.97.97 0 0 1-.375-.058c.008.16.012.297.047.437.692.106 1.031-.332 1.07-.652l-.058-.004c.027-.445-.328-.879-.82-1.031-.153.281-.23.62-.243.996.133.059.254.101.395.113 0 0-.02.137-.016.2zM42.54 61.797c.05.02.073.058.116.074-.039-.14-.047-.3-.05-.508-.086-.058-.157-.082-.2-.16v-.238c.07.07.125.074.192.133.02-.336.074-.66.215-.88-.333-.019-.508.067-.731.25 0 0-.23.942.457 1.329zM67.527 33.863h-.273a2.41 2.41 0 0 0-.242-.297c-.028-.027-.055-.058-.082-.086-.028-.027-.059-.05-.086-.074a1.47 1.47 0 0 0-.516-.285 1.6 1.6 0 0 0-.476-.074c-.004 0-.075 0-.176.02l-.063.011a.771.771 0 0 0-.14.04h-.004c-.051.019-.106.042-.16.073l-.32.145a27.442 27.442 0 0 0-2.79-3.895 27.994 27.994 0 0 0-3.48-3.386c-6.008-4.895-14.414-7.512-24.516-6.04a32.749 32.749 0 0 1 6.754-.906c8.215-.242 16.55 2.668 22.684 9.34.882.961 1.722 1.992 2.507 3.113.106.184.207.34.317.5.086.13.18.266.27.41.14.215.292.454.46.762.102.184.211.391.332.63zm0 0"/><path style="stroke:none;fill-rule:nonzero;fill:#311d00;fill-opacity:1" d="M64.992 33.336h-.226v.113l-.79.395h-2.57c-3.11-5.266-9.215-10.66-17.304-12.735-3.68-.945-7.77-1.199-12.172-.453l2.273-.64c10.102-1.473 18.512 1.144 24.52 6.039a27.686 27.686 0 0 1 3.476 3.386 27.784 27.784 0 0 1 2.793 3.895zm0 0"/><path style="stroke:none;fill-rule:nonzero;fill:#311d00;fill-opacity:1" d="M62.41 36.117c-.133-.37-.195-.512-.367-1.113-.234-.813.086-.828.426-.856.218-.02.543.024.562.028.16-.285.356-.418.41-.453l-.058.023c-1.309-.047-1.285-.059-1.285-.059-.465-.003-.84.168-1.035.47-.454.706.12 1.878.164 1.984 0 0 .832 2.39 1.09 3.136.167-.035.331-.066.495-.097l-1.23-3.407c-.484-1.148.059-1.578.059-1.578-.145.43-.024.922.058 1.18.16.504.696 1.977 1.14 3.113.09.223.165.438.235.64.137-.026.27-.054.403-.077-.38-1.145-.899-2.489-1.063-2.934zm0 0"/><path style="stroke:none;fill-rule:nonzero;fill:#311d00;fill-opacity:1" d="M65.64 32.82s-.406.102-.745.203l-1.426.684s-.016.012-.024.016c-.058.039-.25.172-.41.453-.05.086-.094.183-.133.297-.101.332-.129.78.051 1.379a34.537 34.537 0 0 0 .668 2 30.508 30.508 0 0 0 .477 1.199s1.257-.317 1.742-.117c0 0 1.027.375.57 1.316 0 0-.082.484-1.652.684 0 0 .02.101.066.234.102.285.34.73.844.766.742.058 1.855.058 2.285 0 .305-.04 1.535-.13 1.793-1.243.106-.457.05-1.082-.305-1.957l-.14-.328-1.692-3.926s-.074-.308-.27-.66c-.265-.484-.773-1.047-1.702-1zm-2.378 1.61.437-.207c-.258.855.16 1.808.16 1.808l.98 2.73-.51.098s-.638-1.757-1.04-2.968c-.305-.926-.027-1.457-.027-1.457zm1.902 6.703c2.742-.227 1.492-2.817.066-2.446-.543-1.343-.972-2.683-.972-2.683s-.57-1.43-.145-1.973l.602-.316s-.02 0-.028.113c-.011.18.016.508.227 1.004.344.8 1.762 4.066 1.945 4.543.914 2.367-1.445 2.805-1.695 1.758zm1.79.469s.456-.325.487-.696c0 0 1.141 0 1.75.012 0 0-.332.816-2.238.684zm.308-6.922c.226.527 1.336 3.066 1.664 3.883.43 1.085.465 1.57.465 1.57h-1.899c0-.2-.258-.942-.258-.942l-1.117-2.601-.02-.059-.671-1.625-.172-.43c-.059-.128-.078-.238-.078-.238-.211-.996.648-1.074 1-.93.488.2.832.77 1.09 1.372zm0 0"/></svg>