<svg xmlns="http://www.w3.org/2000/svg" xmlns:xlink="http://www.w3.org/1999/xlink" version="1.1" width="256" height="256" viewBox="0 0 256 256" xml:space="preserve">
<g style="stroke: none; stroke-width: 0; stroke-dasharray: none; stroke-linecap: butt; stroke-linejoin: miter; stroke-miterlimit: 10; fill: none; fill-rule: nonzero; opacity: 1;" transform="translate(1.4065934065934016 1.4065934065934016) scale(2.81 2.81)">
	<path d="M 21.95 21.95 C 3.85 40.049 -2.946 64.11 3.181 82.228 c 0.728 2.152 2.439 3.863 4.591 4.591 C 25.89 92.946 49.951 86.15 68.05 68.05 c 18.1 -18.1 24.896 -42.16 18.769 -60.278 c -0.728 -2.152 -2.439 -3.863 -4.591 -4.591 C 64.11 -2.946 40.049 3.85 21.95 21.95 z" style="stroke: none; stroke-width: 1; stroke-dasharray: none; stroke-linecap: butt; stroke-linejoin: miter; stroke-miterlimit: 10; fill: rgb(150,106,91); fill-rule: nonzero; opacity: 1;" transform=" matrix(1 0 0 1 0 0) " stroke-linecap="round"/>
	<path d="M 1.734 59.523 l 28.744 28.744 c 3.721 -0.624 7.485 -1.635 11.228 -3.028 L 4.762 48.295 C 3.368 52.037 2.358 55.802 1.734 59.523 z" style="stroke: none; stroke-width: 1; stroke-dasharray: none; stroke-linecap: butt; stroke-linejoin: miter; stroke-miterlimit: 10; fill: rgb(250,245,220); fill-rule: nonzero; opacity: 1;" transform=" matrix(1 0 0 1 0 0) " stroke-linecap="round"/>
	<path d="M 48.295 4.762 l 36.943 36.943 c 1.394 -3.742 2.404 -7.507 3.028 -11.228 L 59.523 1.733 C 55.802 2.358 52.037 3.368 48.295 4.762 z" style="stroke: none; stroke-width: 1; stroke-dasharray: none; stroke-linecap: butt; stroke-linejoin: miter; stroke-miterlimit: 10; fill: rgb(250,245,220); fill-rule: nonzero; opacity: 1;" transform=" matrix(1 0 0 1 0 0) " stroke-linecap="round"/>
	<path d="M 21.6 90 c -4.926 0 -9.695 -0.727 -14.149 -2.233 c -2.441 -0.825 -4.392 -2.775 -5.218 -5.217 C -4.16 63.643 3.479 39.006 21.242 21.242 l 0 0 C 39.006 3.479 63.642 -4.162 82.549 2.233 c 2.442 0.826 4.393 2.777 5.217 5.219 c 6.394 18.905 -1.245 43.542 -19.009 61.306 C 55.179 82.336 37.582 90 21.6 90 z M 22.657 22.657 C 5.419 39.895 -2.026 63.707 4.129 81.908 c 0.628 1.855 2.109 3.336 3.963 3.963 c 18.202 6.155 42.014 -1.29 59.251 -18.528 C 84.581 50.105 92.027 26.294 85.871 8.092 c -0.626 -1.854 -2.107 -3.336 -3.963 -3.964 C 63.708 -2.027 39.895 5.42 22.657 22.657 L 22.657 22.657 z" style="stroke: none; stroke-width: 1; stroke-dasharray: none; stroke-linecap: butt; stroke-linejoin: miter; stroke-miterlimit: 10; fill: rgb(0,0,0); fill-rule: nonzero; opacity: 1;" transform=" matrix(1 0 0 1 0 0) " stroke-linecap="round"/>
	<path d="M 30.968 60.033 c -0.256 0 -0.512 -0.098 -0.707 -0.293 c -0.391 -0.391 -0.391 -1.024 0 -1.415 L 58.325 30.26 c 0.391 -0.391 1.024 -0.391 1.415 0 c 0.391 0.391 0.391 1.024 0 1.415 L 31.675 59.74 C 31.48 59.935 31.224 60.033 30.968 60.033 z" style="stroke: none; stroke-width: 1; stroke-dasharray: none; stroke-linecap: butt; stroke-linejoin: miter; stroke-miterlimit: 10; fill: rgb(0,0,0); fill-rule: nonzero; opacity: 1;" transform=" matrix(1 0 0 1 0 0) " stroke-linecap="round"/>
	<path d="M 50.631 51.632 c -0.256 0 -0.512 -0.098 -0.707 -0.293 L 38.661 40.076 c -0.391 -0.391 -0.391 -1.024 0 -1.415 c 0.391 -0.391 1.024 -0.391 1.415 0 l 11.263 11.263 c 0.391 0.391 0.391 1.024 0 1.415 C 51.143 51.534 50.887 51.632 50.631 51.632 z" style="stroke: none; stroke-width: 1; stroke-dasharray: none; stroke-linecap: butt; stroke-linejoin: miter; stroke-miterlimit: 10; fill: rgb(0,0,0); fill-rule: nonzero; opacity: 1;" transform=" matrix(1 0 0 1 0 0) " stroke-linecap="round"/>
	<path d="M 58 44.263 c -0.256 0 -0.512 -0.098 -0.707 -0.293 L 46.03 32.707 c -0.391 -0.391 -0.391 -1.024 0 -1.415 c 0.391 -0.391 1.024 -0.391 1.415 0 l 11.263 11.263 c 0.391 0.391 0.391 1.024 0 1.415 C 58.512 44.165 58.256 44.263 58 44.263 z" style="stroke: none; stroke-width: 1; stroke-dasharray: none; stroke-linecap: butt; stroke-linejoin: miter; stroke-miterlimit: 10; fill: rgb(0,0,0); fill-rule: nonzero; opacity: 1;" transform=" matrix(1 0 0 1 0 0) " stroke-linecap="round"/>
	<path d="M 43.262 59 c -0.256 0 -0.512 -0.098 -0.707 -0.293 L 31.292 47.444 c -0.391 -0.391 -0.391 -1.024 0 -1.415 c 0.391 -0.391 1.024 -0.391 1.415 0 L 43.97 57.293 c 0.391 0.391 0.391 1.024 0 1.415 C 43.774 58.903 43.518 59 43.262 59 z" style="stroke: none; stroke-width: 1; stroke-dasharray: none; stroke-linecap: butt; stroke-linejoin: miter; stroke-miterlimit: 10; fill: rgb(0,0,0); fill-rule: nonzero; opacity: 1;" transform=" matrix(1 0 0 1 0 0) " stroke-linecap="round"/>
	<path d="M 30.477 89.267 c -0.263 0 -0.518 -0.104 -0.707 -0.293 L 1.026 60.23 c -0.229 -0.229 -0.333 -0.554 -0.279 -0.872 c 0.638 -3.802 1.673 -7.642 3.078 -11.411 c 0.119 -0.319 0.392 -0.556 0.724 -0.629 c 0.332 -0.07 0.68 0.03 0.92 0.271 L 42.412 84.53 c 0.241 0.24 0.342 0.587 0.27 0.92 c -0.072 0.332 -0.309 0.606 -0.628 0.725 c -3.77 1.404 -7.609 2.44 -11.411 3.078 C 30.588 89.262 30.533 89.267 30.477 89.267 z M 2.808 59.182 l 28.011 28.011 c 3.017 -0.535 6.057 -1.328 9.063 -2.363 L 5.171 50.119 C 4.135 53.125 3.342 56.165 2.808 59.182 z" style="stroke: none; stroke-width: 1; stroke-dasharray: none; stroke-linecap: butt; stroke-linejoin: miter; stroke-miterlimit: 10; fill: rgb(0,0,0); fill-rule: nonzero; opacity: 1;" transform=" matrix(1 0 0 1 0 0) " stroke-linecap="round"/>
	<path d="M 85.238 42.706 c -0.263 0 -0.518 -0.104 -0.707 -0.293 L 47.588 5.469 c -0.241 -0.241 -0.343 -0.588 -0.271 -0.92 c 0.073 -0.333 0.31 -0.606 0.629 -0.724 c 3.769 -1.404 7.608 -2.44 11.41 -3.078 c 0.316 -0.055 0.644 0.051 0.872 0.279 L 88.974 29.77 c 0.229 0.229 0.333 0.554 0.279 0.873 c -0.638 3.802 -1.674 7.642 -3.078 11.411 c -0.119 0.319 -0.393 0.556 -0.725 0.628 C 85.379 42.698 85.308 42.706 85.238 42.706 z M 50.119 5.171 l 34.71 34.711 c 1.036 -3.006 1.828 -6.046 2.363 -9.063 L 59.181 2.808 C 56.164 3.342 53.125 4.135 50.119 5.171 z" style="stroke: none; stroke-width: 1; stroke-dasharray: none; stroke-linecap: butt; stroke-linejoin: miter; stroke-miterlimit: 10; fill: rgb(0,0,0); fill-rule: nonzero; opacity: 1;" transform=" matrix(1 0 0 1 0 0) " stroke-linecap="round"/>
</g>
</svg>