<svg xmlns="http://www.w3.org/2000/svg" width="100" height="100"><path style="stroke:none;fill-rule:nonzero;fill:#fff;fill-opacity:1" d="M69.816 25.457c17.832 13.566 4.262 15.598-9.664 17.582 0 0-5.875-1.621-16.058-6.68C21 24.891 28.27 19.484 46.422 16.215 17.372 3.559-6.84 25.594 19.872 47.02l-7.333 5.238c6.024 3.691 18.496 11.433 16.684 23.289l-6.192 4.426 18.91 8.566 14.918-6.758c.11-6.566 11.844-9.976 16.895-23.336 27.793-6.375 20.715-30.824-3.938-32.988zm0 0"/><path style="stroke:none;fill-rule:nonzero;fill:#00001b;fill-opacity:1" d="M57.113 44.29C22.223 30.812 19.91 19.757 41.691 15.937 14.453 8.535-1.434 28.277 25.516 47.102L18.28 52.27c7.68 5.132 15.817 12.73 13.055 24.687l-3.64 2.602 13.991 6.343C54.712 71.637 61.523 57.777 57.114 44.29zM48.32 65.991l-5.363-6.097-6.152.917 2.843-4.683-5.359-6.102 7.121 3.203 2.836-4.687 1.555 6.664 7.117 3.2-6.156.921zm0 0"/><path style="stroke:none;fill-rule:nonzero;fill:#ed1b30;fill-opacity:1" d="M74.824 27.578c11.977 9.375 3.66 15.363-10.937 16.992 3.691 15.567-7.633 29.828-19.621 40.871l10.992-4.98c.812-6.328 11.969-9.621 17.254-23.66 24.824-5.54 20.773-23.356 2.312-29.223zm0 0"/></svg>