<svg xmlns="http://www.w3.org/2000/svg" width="100" height="100"><defs><linearGradient id="a" gradientUnits="userSpaceOnUse" x1="6.206" y1="12.323" x2="17.821" y2="12.323" gradientTransform="scale(4.16667)"><stop offset="0" style="stop-color:#ffa300;stop-opacity:1"/><stop offset=".134" style="stop-color:#ffa800;stop-opacity:1"/><stop offset=".289" style="stop-color:#ffb600;stop-opacity:1"/><stop offset=".453" style="stop-color:#ffcd00;stop-opacity:1"/><stop offset=".478" style="stop-color:#ffd100;stop-opacity:1"/></linearGradient></defs><path style="stroke:none;fill-rule:nonzero;fill:#fff;fill-opacity:1" d="M81.613 31.023c-6.465-6.468-15.281-10.191-24.687-10.191-6.465 0-12.934 1.961-18.418 5.293-3.723 2.352-7.055 5.68-9.602 9.402h-7.25L8.332 66.094h17.637c2.351 4.898 6.465 8.62 11.168 11.168 3.918 2.156 8.62 3.527 13.324 3.527 5.289 0 10.773-1.566 15.281-4.504.98-.59 1.567-1.96.98-2.941-.195-.98-1.37-1.957-2.35-1.957-.196 0-.587 0-.786.195-1.957.586-3.527.781-5.29.781-5.288 0-10.382-2.152-13.91-6.074h16.262l2.938-3.723h10.973s-.196.786-.586.98l-1.371 2.352h17.437l.586-1.37c.785-2.938.98-6.075.98-9.012.59-9.211-3.132-18.028-9.992-24.493zm7.25 33.114H75.54c.59-.98.98-2.352 1.371-3.723h-14.5l-2.937 3.723h-13.13l19.594-27.239c-2.351-.976-5.093-1.566-8.03-1.566h-.981c-10.387.59-19.008 9.016-19.008 19.203 0 .781 0 1.371.2 2.156h11.558l-3.528 4.899c-.98 1.566-2.351 2.742-4.898 2.742h-.781c3.523 5.879 9.992 9.992 17.437 9.992 2.153 0 3.918-.195 5.88-.785h.194c.782 0 .977.98.586 1.57-3.918 2.743-8.816 4.309-14.105 4.309-4.508 0-8.82-.98-12.543-3.133-4.898-2.351-8.621-6.664-10.773-11.562H11.273l11.754-26.844h7.055C34.59 32 41.84 27.887 49.872 27.69h.589c10.973 0 19.984 6.465 23.902 16.067l-6.66 9.406h10.188c-.196-15.48-12.54-27.824-27.825-27.824-3.722 0-7.25.785-10.382 2.156 5.093-3.137 10.972-5.094 17.437-5.094 18.223 0 32.918 14.696 32.918 32.914 0 3.332-.39 5.88-1.176 8.82zM50.656 54.73H39.488v-.195c0-9.406 7.446-16.851 17.047-17.437h.781c1.961 0 3.528.195 5.094.586zm24.098-8.816c.59 1.566.785 3.527.785 5.094h-4.508zm0 0"/><path style="stroke:none;fill-rule:nonzero;fill:#003594;fill-opacity:1" d="M39.684 27.887a25.895 25.895 0 0 1 10.382-2.157c15.286 0 27.63 12.344 27.63 27.63 0 3.917-.786 7.835-2.352 11.167h13.715c.785-2.937.98-5.683.98-8.62 0-18.223-14.695-32.919-32.918-32.919-6.465-.195-12.344 1.371-17.437 4.899zm0 0"/><path style="stroke:none;fill-rule:nonzero;fill:#0c2340;fill-opacity:1" d="m65.938 36.898-4.504 6.075h.586c3.722 0 7.25 1.57 9.406 3.922l2.742-3.723c-2.156-2.55-4.703-4.703-8.23-6.274zM76.715 60.414c.59-2.156.785-4.898.785-7.25v-.2h-2.941c.195.981.59 2.157.59 3.528 0 1.375-.196 2.746-.59 3.723h2.156zm0 0"/><path style="stroke:none;fill-rule:nonzero;fill:#003594;fill-opacity:1" d="M74.953 52.965h-7.445l4.308-5.875c-2.351-2.352-5.879-3.918-9.406-3.918h-.586l-15.48 21.16h13.129l2.937-3.723h12.543c.195-.98.586-2.351.586-3.722-.195-1.57-.195-2.942-.586-3.922zm0 0"/><path style="stroke:none;fill-rule:nonzero;fill:#ffd100;fill-opacity:1" d="M64.371 74.715c-3.918 2.742-8.816 4.312-14.105 4.312-4.508 0-8.82-.98-12.543-3.136-2.153-2.352-3.528-5.68-4.504-8.817 2.937-.195 7.05.196 10.187 1.567 3.528 3.527 8.621 5.879 14.11 5.879 2.152 0 3.918-.196 5.875-.786h.195c1.176-.39 1.57.59.785.98zM38.117 56.69c0-.59-.195-1.375-.195-2.156 0-10.387 8.621-18.812 19.004-19.203-12.149.39-22.336 9.602-23.903 21.36zm0 0"/><path style="stroke:none;fill-rule:nonzero;fill:#ffa300;fill-opacity:1" d="M40.469 64.137h-7.446c.196.781.196 1.957.586 2.742 2.938-.195 7.055.195 10.188 1.566-1.371-1.37-2.547-2.547-3.328-4.308zm0 0"/><path style="stroke:none;fill-rule:nonzero;fill:#ff8200;fill-opacity:1" d="M27.145 64.137c.78 1.957 2.152 3.722 3.527 5.68.781-.981 1.566-2.157 2.937-2.743-.195-.785-.59-1.96-.59-2.742zm0 0"/><path style="stroke:none;fill-rule:nonzero;fill:url(#a)" d="M65.938 36.898c-2.352-.976-5.094-1.566-8.032-1.566h-.98c-12.149.39-22.336 9.602-23.906 21.36h-7.051l8.62-19.594h-4.507c4.508-5.88 11.758-9.996 19.79-10.192h.589c10.973 0 19.984 6.469 23.902 16.067-2.351-2.352-4.898-4.504-8.425-6.075zm-32.329 29.98c-.98.587-2.156 1.567-2.937 2.743 2.152 2.352 4.504 4.508 7.246 6.074-1.957-2.742-3.523-5.683-4.309-8.816zm0 0"/><path style="stroke:none;fill-rule:nonzero;fill:#003594;fill-opacity:1" d="m34.395 37.488-8.622 19.594h23.512l-3.137 4.508c-.98 1.566-2.351 2.742-4.898 2.742H11.273l11.754-26.844zm0 0"/></svg>