<svg xmlns="http://www.w3.org/2000/svg" width="100" height="100"><defs><clipPath id="a"><path d="M17 10.418h66v79.164H17Zm0 0"/></clipPath></defs><g clip-path="url(#a)"><path d="M75.867 41.82c-4.89-2.816-10.844-3.078-16-.703-.18-1.672-.62-3.258-1.156-4.84-.887-2.726-1.957-5.277-2.844-7.562-1.156-2.992-2.043-5.543-2.578-7.305l-3.2-10.73-3.288 10.82c-.535 1.672-1.336 4.309-2.578 7.3-.891 2.29-1.868 4.84-2.844 7.567-.535 1.582-.98 3.164-1.156 4.836-5.157-2.46-11.114-2.2-16 .703-4.621 2.727-7.2 7.477-6.578 12.492.535 4.485 3.82 8.094 8.18 9.235l3.284.883.801-3.258c.09-.438 1.336-4.574 5.067-4.485 2.578.086 4.71 2.286 5.777 3.782-.356 1.144-.531 2.375-.356 3.605l-1.421-1.844-2.664 1.934c-2.403 1.758-5.868 6.07-3.735 11.258.977 2.289 3.2 3.96 5.688 4.312 1.777.352 3.558.262 5.336-.175.796 2.636 2.308 5.101 4.175 7.21l2.403 2.465 2.398-2.465a17.319 17.319 0 0 0 4.176-7.21c1.781.351 3.559.437 5.336.085 2.488-.351 4.62-2.023 5.597-4.308 2.137-5.102-1.332-9.5-3.73-11.262l-2.668-1.933-1.422 1.933c.176-1.23 0-2.46-.355-3.605.976-1.496 3.199-3.696 5.777-3.782 3.734-.09 4.977 4.047 5.066 4.485l.801 3.258 3.29-.883c4.355-1.14 7.554-4.836 8.09-9.324.62-4.926-1.958-9.762-6.669-12.489Zm0 0" style="stroke:none;fill-rule:nonzero;fill:#000;fill-opacity:1"/></g><path d="M49.023 21.941a55.886 55.886 0 0 1-2.668 7.653c-.89 2.285-1.867 4.836-2.753 7.476-.711 2.024-1.157 4.133-1.247 6.246 0 .528.09 1.141.09 1.668-3.289-2.199-9.777-5.277-16.98-1.14-4 2.285-6.133 6.246-5.598 10.289.445 3.52 3.024 6.512 6.488 7.39l1.067.262.265-1.055c.09-.261 1.602-6.332 7.29-6.156 4.535.086 7.558 4.485 8.27 5.805-.446.879-.712 1.762-.712 2.726 0 1.41.531 2.727 1.422 3.872-.445.703-1.066 1.144-1.867 1.32-1.156.086-2.313-1.055-3.024-2.113l-.62-.88-.891.618c-1.778 1.32-4.621 4.75-2.934 8.621.711 1.672 2.223 2.812 4 2.988 2.223.352 4.445.09 6.488-.789a16.035 16.035 0 0 0 4.27 8.442l.8.793.798-.793c2.222-2.375 3.734-5.278 4.27-8.442 2.042.88 4.265 1.14 6.487.79 1.778-.262 3.29-1.317 4-2.989 1.598-3.871-1.246-7.3-3.023-8.621l-.89-.617-.622.879c-.71.968-1.867 2.199-3.02 2.113-.8-.176-1.511-.703-1.867-1.32a6.116 6.116 0 0 0 1.422-3.872c0-.964-.27-1.933-.71-2.726.796-1.32 3.73-5.719 8.265-5.805 5.602-.09 7.2 5.895 7.29 6.156l.265 1.055 1.066-.262c3.469-.968 6.047-3.87 6.488-7.39.536-4.043-1.597-8.004-5.597-10.29-7.2-4.136-13.778-1.058-17.067 1.231.086-.527.176-1.054.176-1.582-.09-2.113-.531-4.312-1.242-6.336-.89-2.636-1.957-5.187-2.848-7.476a55.509 55.509 0 0 1-2.664-7.653l-1.066-4.836Zm0 0" style="stroke:none;fill-rule:nonzero;fill:#fff;fill-opacity:1"/><path d="M50.18 84.57c2.488-2.64 3.91-5.98 4.086-9.5 1.777 1.758 8.8 2.989 10.312-.793 1.688-4.132-2.668-7.3-2.668-7.3-4.176 5.628-7.02.175-7.02.175 3.2-3.43.797-6.507.797-6.507.18-.618 3.825-6.774 9.512-6.95 6.578-.175 8.356 6.95 8.356 6.95 6.933-1.938 8.265-11.438.625-15.836-9.602-5.54-18.047 2.906-18.047 2.906.8-3.168.976-5.543-.531-10.117-2.137-6.246-4.711-11.875-5.512-15.305-.711 3.43-3.38 8.973-5.422 15.305-1.602 4.66-1.336 6.949-.535 10.117 0 0-8.446-8.445-18.043-2.906-7.555 4.398-6.223 13.898.71 15.836 0 0 1.778-7.125 8.356-6.95 5.688.086 9.332 6.246 9.512 6.86 0 0-2.402 3.078.797 6.511 0 0-2.844 5.454-7.02-.09 0 0-4.355 3.169-2.668 7.391 1.602 3.781 8.535 2.551 10.313.79.09 3.433 1.597 6.863 4.09 9.413Zm0 0" style="stroke:none;fill-rule:nonzero;fill:#000;fill-opacity:1"/><path d="M67.422 44.371c-7.82 0-14.313 8.797-14.313 8.797.27-1.41 3.645-7.918.625-15.746-3.023-7.828-3.644-10.906-3.644-10.906s-.625 3.164-3.645 10.906c-3.023 7.738.356 14.25.621 15.656 0 0-6.488-8.797-14.312-8.797-7.82 0-14.399 8.887-7.11 14.074 1.422-3.87 5.247-6.507 9.422-6.507 5.332 0 10.754 5.718 11.024 8.53-1.422 2.024-.98 4.84.976 6.337 0 0-3.734 7.738-8.8 2.11 0 0-3.91 4.925 1.246 6.07 4.09.964 8.09-3.168 8.09-3.168s-.446 6.507 2.578 10.027c3.02-3.52 2.574-10.027 2.574-10.027s4 4.132 8.18 3.168c5.156-1.235 1.156-6.07 1.156-6.07-5.156 5.542-8.8-2.11-8.8-2.11 1.956-1.496 2.398-4.313.976-6.336.18-2.813 5.601-8.531 10.933-8.531 4.266 0 8 2.55 9.422 6.507 7.2-5.187.625-13.984-7.2-13.984Zm0 0" style="stroke:none;fill-rule:nonzero;fill:#d3bc8d;fill-opacity:1"/></svg>