<svg xmlns="http://www.w3.org/2000/svg" width="100" height="100"><path style="stroke:none;fill-rule:nonzero;fill:#fff;fill-opacity:1" d="M50 74.71c-5.852 0-15.605-1.534-23.844-5.866-8.062-4.242-13.926-9.16-16.508-13.856a10.592 10.592 0 0 1-1.316-5.133 10.548 10.548 0 0 1 1.316-5.132c2.582-4.696 8.446-9.614 16.508-13.856C34.395 26.54 44.152 25 50 25c5.848 0 15.605 1.54 23.844 5.867 8.062 4.242 13.926 9.16 16.504 13.856a10.553 10.553 0 0 1 1.32 5.132 10.52 10.52 0 0 1-1.32 5.133c-2.578 4.692-8.442 9.614-16.504 13.852-8.239 4.332-17.992 5.867-23.844 5.867"/><path style="stroke:none;fill-rule:nonzero;fill:#004e38;fill-opacity:1" d="M89.32 49.855a8.3 8.3 0 0 0-1.043-4.082c-2.324-4.226-7.93-8.914-15.558-12.93-7.86-4.128-17.121-5.59-22.719-5.59-5.598 0-14.863 1.462-22.719 5.59-7.633 4.016-13.238 8.704-15.562 12.93a8.385 8.385 0 0 0-1.043 4.082 8.385 8.385 0 0 0 1.043 4.083c2.324 4.222 7.93 8.914 15.562 12.93 7.856 4.128 17.121 5.589 22.719 5.589 5.598 0 14.86-1.46 22.719-5.59 7.629-4.015 13.234-8.707 15.558-12.93a8.3 8.3 0 0 0 1.043-4.082zm0 0"/><path style="stroke:none;fill-rule:nonzero;fill:#fff;fill-opacity:1" d="M68.64 45.746 66.07 50.2a.888.888 0 0 0 .446 1.274l4.68 1.847H61.144l-1.543 2.676h15.082c.32 0 .613-.172.773-.445l2.57-4.453a.89.89 0 0 0-.445-1.274l-5.812-2.297h8.316l1.289-2.226H69.41a.896.896 0 0 0-.77.445zM65.828 47.531l1.285-2.23H52.855l-1.289 2.23h3.567l-4.887 8.465h7.129l4.887-8.465zM49.785 47.531l1.285-2.23H39.484l-6.172 10.695h14.704l1.543-2.676h-7.575l1.032-1.78h4.007l1.286-2.227H44.3l1.027-1.782zm0 0"/><path style="stroke:none;fill-rule:nonzero;fill:#fff;fill-opacity:1" d="M79.797 42.59s-1.059-.211-4.164-.43L64.75 41.094c-5.98-.528-11.23-1.903-16.098-5.32h-.164l4.11 6.632H31.8l-6.047 10.469a.89.89 0 0 1-.774.445h-6.613l-1.543 2.676h13.23c.637 0 1.223-.34 1.544-.89l6.687-11.586h44.117a7.848 7.848 0 0 0-2.605-.93zm0 0"/></svg>