<svg xmlns="http://www.w3.org/2000/svg" width="100" height="100"><path style="stroke:none;fill-rule:nonzero;fill:#ffb612;fill-opacity:1" d="m65.266 29.293 2.629 8.133-2.004 6.004-4.63-14.262H40.618l-3.754 11.387-3.754-11.387H8.332l7.758 12.637 10.762 32.78h20.02L50.874 62.2l4.004 12.387h22.023l14.766-45.293zM18.969 40.555l-5.13-8.262H30.98l4.254 13.266-7.382 22.648zm25.652 31.03h-14.64l12.011-36.913 7.383 22.648zm-.25-39.292h14.762l5.258 16.145-7.508 22.519zm30.277 39.293H59.887l11.133-34.16-1.625-5.133h18.02zm0 0"/><path style="stroke:none;fill-rule:nonzero;fill:#5a1414;fill-opacity:1" d="m64.266 48.438-7.383 22.519L44.37 32.293h14.762zm5.129-16.145 1.625 5.133-11.133 34.16h14.761l12.766-39.293zm-38.415 0H13.84l5.129 8.262 9.008 27.527 7.382-22.648zm-1 39.293h14.766l4.629-14.266-7.383-22.523zm0 0"/></svg>